<svg xmlns="http://www.w3.org/2000/svg" viewBox="0 0 500 500"><g id="freepik--character-2--inject-102"><polygon points="330.26 315.72 327.23 333.89 306.7 457.53 303.39 457.53 318.32 333.89 320.53 315.72 330.26 315.72" style="fill:#dbdbdb"></polygon><polygon points="320.53 315.72 330.26 315.72 327.23 333.89 318.32 333.89 320.53 315.72" style="fill:#a6a6a6"></polygon><polygon points="394.73 457.53 391.42 457.53 370.89 333.89 367.86 315.72 377.6 315.72 379.8 333.89 394.73 457.53" style="fill:#dbdbdb"></polygon><polygon points="377.6 315.72 379.8 333.89 370.89 333.89 367.86 315.72 377.6 315.72" style="fill:#a6a6a6"></polygon><polygon points="456.31 457.53 453 457.53 432.47 333.89 429.44 315.72 439.17 315.72 441.38 333.89 456.31 457.53" style="fill:#dbdbdb"></polygon><polygon points="441.38 333.89 432.47 333.89 429.44 315.72 439.17 315.72 441.38 333.89" style="fill:#a6a6a6"></polygon><polygon points="451.06 324.26 300.63 324.26 300.63 308.41 356.94 308.41 375.87 198.3 445.32 198.3 451.06 324.26" style="fill:#dbdbdb"></polygon><polygon points="451.06 324.26 442.86 324.26 437.51 198.3 445.32 198.3 451.06 324.26" style="fill:#a6a6a6"></polygon><path d="M367.87,169.83c-23.11,26.07-44.09,54.12-44.5,67.29-.57,18.23,12.61,20,17.56,19.47,13.47-1.38,30.2-56.69,36.37-78.47C383.28,157,372.94,164.11,367.87,169.83Z" style="fill:#FFC727"></path><path d="M377.3,178.12c-6.16,21.78-22.9,77.09-36.37,78.47a15.49,15.49,0,0,1-1.87.06c7.08-18.53,28.24-73.91,35.47-92.23C378.34,162.69,381.08,164.76,377.3,178.12Z" style="opacity:0.1"></path><path d="M256.4,456.07c3,.26,77.81-19.43,80.37-22.11,1-1-1.2-12.79-4.25-26.95l-10.08-39.85-48,11.71,8.07,41.56S258.86,440.74,256.35,444,253.39,455.83,256.4,456.07Z" style="fill:#ad6359"></path><path d="M255.26,457.32c2.92.2,79.85-19.72,82.3-22.34.94-1-1.46-12.93-4.56-26.6l-52,13s-23,19.95-25.34,23.11S252.34,457.12,255.26,457.32Z" style="fill:#FFC727"></path><path d="M255.56,454c12.82-3.66,64.84-17.2,77.79-19.84.1,0,.12.05,0,.08-12.62,3.9-64.76,17-77.75,20C255.34,454.23,255.29,454,255.56,454Z" style="fill:#263238"></path><path d="M259.31,441.57a10.68,10.68,0,0,1,8.53,1.15,10.4,10.4,0,0,1,4.67,6.14c0,.08-.13.12-.16,0a12.36,12.36,0,0,0-13-7.17A.08.08,0,0,1,259.31,441.57Z" style="fill:#263238"></path><path d="M276.23,424.37c4.92-2.06,11.36-2.62,16.06.19.18.11,0,.37-.16.35a74,74,0,0,0-15.74.1A.33.33,0,0,1,276.23,424.37Z" style="fill:#263238"></path><path d="M273,427.39c4.92-2.05,11.35-2.61,16.06.2.18.11,0,.36-.16.35a73.3,73.3,0,0,0-15.74.1A.34.34,0,0,1,273,427.39Z" style="fill:#263238"></path><path d="M269.79,430.42c4.92-2.06,11.35-2.62,16,.19.19.11,0,.37-.15.35a73.3,73.3,0,0,0-15.74.1A.33.33,0,0,1,269.79,430.42Z" style="fill:#263238"></path><path d="M282,420.55l51-12.17s-15-86.95-12.8-89.92c4.09-5.63,66.37-4.43,85.58-23.52,20.34-20.21,11.46-45.77,11.46-45.77h-55.7s-.44,7.49-1.46,7.79c-12.62,3.68-62.17,5.31-80.2,19.76-4.64,3.72-12.48,13.4-14.08,23C260.73,330.43,282,420.55,282,420.55Z" style="fill:#263238"></path><path d="M329.59,399a26.81,26.81,0,0,0-4.62.67l-4.69.94-9.56,2c-6.36,1.32-12.71,2.69-19,4.19-3.57.84-7.09,1.83-10.63,2.79-.14,0-.08.25.06.23,12.86-2.09,25.53-5,38.22-7.88l5.17-1.21a29.43,29.43,0,0,0,5.15-1.47C329.76,399.16,329.7,399,329.59,399Z" style="fill:#37474f"></path><path d="M405.78,294.94c-12.47,12.39-43.09,16.23-64.16,18.95l41.2-64.72h34.42S426.12,274.73,405.78,294.94Z" style="fill:#37474f"></path><path d="M323.35,394.31c.13.73-.28,1.16-.54,0-6-27.38-10.34-61.55-10.78-66-.23-2.23-.42-4.46-.52-6.7-.05-1.12-.09-2.25-.06-3.38a15.61,15.61,0,0,1,.35-3.43,4.08,4.08,0,0,1,.32-.88,2.27,2.27,0,0,1,.66-.77,6.62,6.62,0,0,1,1.58-.86,24,24,0,0,1,3.24-1.05c2.18-.57,4.38-1,6.58-1.42,4.4-.8,8.82-1.48,13.23-2.16,8.83-1.32,17.66-2.61,26.43-4.24s17.51-3.52,25.81-6.69c4.09-1.65,8.19-3.62,11-7.08a39.45,39.45,0,0,0,7.35-11,47.91,47.91,0,0,0,3.41-26.14,48.18,48.18,0,0,1-3,26.34,39.83,39.83,0,0,1-7.34,11.23,30,30,0,0,1-2.37,2.42,24.39,24.39,0,0,1-2.77,2,42,42,0,0,1-6.06,3,97.61,97.61,0,0,1-12.81,4c-4.35,1.09-8.72,2-13.12,2.84-8.78,1.66-17.62,3-26.44,4.33-4.41.66-8.83,1.32-13.21,2.11-2.19.4-4.37.83-6.51,1.38a24.79,24.79,0,0,0-3.13,1,5.88,5.88,0,0,0-1.36.74,1.27,1.27,0,0,0-.42.48,3,3,0,0,0-.25.68,15.42,15.42,0,0,0-.34,3.22c0,1.1,0,2.21.05,3.32.1,2.22.28,4.43.49,6.65.44,4.43,1,8.86,1.61,13.28C315.71,350.33,321.79,385.52,323.35,394.31Z" style="fill:#37474f"></path><path d="M322.18,457.93c2.89.93,68.93-.14,72-2.16,1.2-.75,1.74-12.73,2-27.22v-.46c.06-3,.1-6.06.1-9.18,0-.43,0-.86,0-1.28.11-20.92-2.19-42.12-2.19-42.12l-53,.05,1.65,42.22.07,1.67.33,8.74,0,.9s-15.16,14.47-18.34,17.06S319.3,457,322.18,457.93Z" style="fill:#ad6359"></path><path d="M319.29,458.21c2.79.9,72.43.28,75.45-1.66,1.15-.73,1.73-12.91,2-26.92H342s-17,14.7-20.08,17.19S316.51,457.3,319.29,458.21Z" style="fill:#FFC727"></path><path d="M320.41,455c13.32-.43,57.26-.92,70.45-.34.11,0,.11.08,0,.09-13.19.72-57.13.77-70.45.47C320.13,455.23,320.13,455,320.41,455Z" style="fill:#263238"></path><path d="M323.25,446.54c7.28-3.57,15.58-4.47,21-3.3,5.19,1.12,10.36,3.67,12.17,8.18.05.13-.29.29-.38.17-5.6-7.51-20-9.77-32.65-4.78C323.12,446.91,323,446.66,323.25,446.54Z" style="fill:#263238"></path><path d="M340.48,437.55a41.61,41.61,0,0,1,24.9.92c.27.1-.07.45-.34.42-8.25-.85-15.77-1.53-24.5-.54C339.94,438.42,339.88,437.71,340.48,437.55Z" style="fill:#263238"></path><path d="M343.28,434.14a41.69,41.69,0,0,1,24.9.93c.27.1-.06.45-.34.42-8.24-.86-15.77-1.53-24.5-.54C342.74,435,342.69,434.3,343.28,434.14Z" style="fill:#263238"></path><path d="M346.08,430.74a41.61,41.61,0,0,1,24.9.93c.27.1-.06.45-.33.42-8.25-.86-15.78-1.53-24.5-.54C345.54,431.61,345.49,430.9,346.08,430.74Z" style="fill:#263238"></path><path d="M341.46,430.5l56.13-.43s-.39-94.33,2.37-101.64,13-12.71,25.33-27c18.75-21.7,2.38-52.2,2.38-52.2l-54.86,0s-7.12,18-6.7,25.27c0,0,5.88.37,9.45.38,0,0-25.53,21.11-32.05,40.9C337.93,332.68,341.46,430.5,341.46,430.5Z" style="fill:#263238"></path><path d="M391.2,276.08a72.55,72.55,0,0,0-15.55-1.84,108.88,108.88,0,0,0-15.84.78.12.12,0,0,0,0,.23c5.23.18,10.47.46,15.7.75s10.4.71,15.61.72A.33.33,0,0,0,391.2,276.08Z" style="fill:#37474f"></path><path d="M418,268.94a39.83,39.83,0,0,1-7.23-1.64,10.42,10.42,0,0,1-5.18-2.75c-2.76-3-3.92-7-6.06-10.39-.07-.12-.23,0-.21.09a50.49,50.49,0,0,0,2,6.9,14.31,14.31,0,0,0,3,5.22c3.43,3.57,9.09,3.11,13.61,3C418.32,269.41,418.29,269,418,268.94Z" style="fill:#37474f"></path><path d="M394.56,419.06a28.07,28.07,0,0,0-4.77-.37c-1.63,0-3.27-.09-4.91-.12l-10-.22c-6.67-.13-13.33-.2-20-.15-3.76,0-7.51.2-11.26.36a.12.12,0,0,0,0,.23c13.34.83,26.66.85,40,.83l5.45,0a31.31,31.31,0,0,0,5.48-.28A.13.13,0,0,0,394.56,419.06Z" style="fill:#37474f"></path><path d="M368.62,251.44c.26,3.32.44,6.65.85,9.95.19,1.56.33,3.14.64,4.68a3,3,0,0,0,.84,1.78,3.72,3.72,0,0,0,2,.68,2.17,2.17,0,0,0,2.69-2.12c.28-3-.6-13.52-.62-14.38,0-.17.55-.18.57,0,.82,6.62,1.91,15.07.51,16.51a4.43,4.43,0,0,1-5.76.41,4.2,4.2,0,0,1-1.26-2.7c-.21-1.45-.28-2.93-.39-4.38-.25-3.47-.56-6.93-.62-10.4C368.06,251.15,368.59,251.14,368.62,251.44Z" style="fill:#37474f"></path><path d="M373.58,269a10.8,10.8,0,0,1,.25,1.26c.09.43.18.85.28,1.27s.2.83.31,1.25.18.84.27,1.26a.16.16,0,0,1-.3.1,10.24,10.24,0,0,1-.51-1.18c-.14-.42-.28-.84-.39-1.27s-.2-.84-.29-1.26a5.9,5.9,0,0,1-.23-1.31A.33.33,0,0,1,373.58,269Z" style="fill:#37474f"></path><path d="M425.55,254.39a118.29,118.29,0,0,1,1.3,21.36,36.22,36.22,0,0,1-1.81,10.6,20.44,20.44,0,0,1-2.63,4.73c-1,1.47-2.16,2.87-3.32,4.23-4.64,5.46-9.75,10.47-14.71,15.59-2.48,2.56-4.95,5.13-7.26,7.82a33.19,33.19,0,0,0-3.15,4.21,14.75,14.75,0,0,0-1.57,4.9c-.65,3.48-1,7-1.29,10.57s-.51,7.11-.68,10.67c-.35,7.12-.52,14.25-.69,21.38s.14,36.07.16,42.8c0,.4-.55.52-.61,0-.19-7.13-.23-14.26-.32-21.4s-.06-14.27,0-21.41.23-14.28.54-21.41c.16-3.57.36-7.14.64-10.7s.62-7.13,1.26-10.68c.16-.89.36-1.77.61-2.65a10.19,10.19,0,0,1,1.09-2.57,35.19,35.19,0,0,1,3.27-4.34c2.35-2.71,4.85-5.27,7.34-7.83,5-5.1,10.09-10.09,14.79-15.43,1.17-1.34,2.3-2.71,3.34-4.14a19.4,19.4,0,0,0,2.62-4.56,36.84,36.84,0,0,0,1.92-10.4A118.09,118.09,0,0,0,425.55,254.39Z" style="fill:#37474f"></path><path d="M361.54,249.17s67.26,3.83,67.64,3.29S417.43,171,393.74,161.32c-4.65-1.91-12.32-1.78-17.21,2.16C362.06,175.12,360.36,248.06,361.54,249.17Z" style="fill:#ebebeb"></path><path d="M392.36,160.52,388.9,203l10,74.82,40-3.57s-21.84-82.33-29.55-96C400.67,162.77,392.36,160.52,392.36,160.52Z" style="fill:#FFC727"></path><path d="M374.32,163.9s-6.41,38.39-6.14,39.16S363,272.93,363,272.93l-16-13.66s8.85-19.11,9-20.77,9.74-49.73,12.11-59.6S374.32,163.9,374.32,163.9Z" style="fill:#FFC727"></path><path d="M401.23,165.71c23.51,20.11,46,54.1,45.41,72.56-.58,18.22-6.86,16.19-8.65,16-11-1.18-34.77-53-41.79-73.95S395.42,160.73,401.23,165.71Z" style="fill:#FFC727"></path><path d="M424,239.42c-1.18-2.35-2.4-4.67-3.54-7l-3.5-7c-2.31-4.71-4.66-9.4-6.89-14.15s-4.54-9.45-6.75-14.21c-1.1-2.37-2.19-4.76-3.23-7.17S398,185,397,182.55a141.94,141.94,0,0,0,5.42,14.82c2,4.85,4.25,9.61,6.49,14.37s4.67,9.42,7.17,14S421.12,235,424,239.42Z" style="fill:#263238"></path><path d="M399.29,188.77a22.16,22.16,0,0,0-1.4-2.44c-.26-.39-.5-.78-.78-1.16s-.53-.77-.84-1.14a7.12,7.12,0,0,0,1.08,2.64A7.9,7.9,0,0,0,399.29,188.77Z" style="fill:#263238"></path><path d="M344.18,254.6c7-5.46,3.48-21.5-.93-48.86-.77-4.8-32.7-13.2-33.29-8-.74,6.5,3.93,33.44,7,40.86C323,253.2,336,261,344.18,254.6Z" style="fill:#ad6359"></path><path d="M312.46,209.89c-3.15-9.95-3.53-22.06-2.13-26.15s12.18-16.06,15.17-18.26,17.41.51,20.65,1.24c2.59.59,4.4,3.27-.53,5.64-6.33,3-13.19,1.12-14.73,2.45s-3.1,8.49-1.1,10.73c1.19,1.31,5.2,1.86,7.59-.27s2.39-5.75,4.77-9.34,8.08-5,8.87-3.6-.84,2.7-2.11,8.74c-.81,3.88.51,9.77-1.91,16.77a84.91,84.91,0,0,1-4.95,10.08Z" style="fill:#ad6359"></path><path d="M316.79,189.8c-.8-5-.69-15.52,2.75-22.12,2.33-4.47,10.89-15.22,14.11-13.17,4.6,2.92-4.91,17.67-5.5,19.72-1.82,6.29.67,14.52.67,14.52Z" style="fill:#ad6359"></path><path d="M327.55,181.37a18.65,18.65,0,0,1-.32-4.48,12.56,12.56,0,0,1,.33-2.27,11.24,11.24,0,0,1,.81-2.15c.65-1.36,1.36-2.66,2.12-3.94s1.56-2.52,2.34-3.79a33.15,33.15,0,0,1-1.67,4.14l-1.89,4A13.27,13.27,0,0,0,328,177C327.81,178.41,327.69,179.88,327.55,181.37Z" style="fill:#263238"></path><path d="M315.83,190.88c-1.59-4.75-3.2-14.89-.95-21.84,1.52-4.7,8.05-16.49,11.49-15,4.93,2.08-1.86,17.89-2.1,20-.72,6.38,3,13.93,3,13.93Z" style="fill:#ad6359"></path><path d="M325.07,181.34a16.1,16.1,0,0,1-1.41-6.37,17.14,17.14,0,0,1,.75-3.21c.28-1,.58-2.07.89-3.09q.9-3.09,1.87-6.15c.62-2,1.3-4.11.75-6.23a6.7,6.7,0,0,1,.49,3.2,20.13,20.13,0,0,1-.56,3.21c-.47,2.1-1,4.17-1.61,6.24-.28,1-.58,2.06-.89,3.09l-.46,1.54a7,7,0,0,0-.35,1.47A25.13,25.13,0,0,0,325.07,181.34Z" style="fill:#263238"></path><path d="M309.67,194.27c-.42-7,.16-17.5,1-20.55s5.4-14.18,9-14.87c4.46-.86,2,8.35,1.12,12.21s.82,9.21.82,9.21Z" style="fill:#ad6359"></path><path d="M320.19,158.8a2.65,2.65,0,0,1,1.28.35,2.09,2.09,0,0,1,.86,1.06,6.67,6.67,0,0,1,.3,2.69,28.56,28.56,0,0,1-.89,5.28,21.53,21.53,0,0,0-.93,5.09,17.7,17.7,0,0,0,.88,5.07c1,3.33,2.65,6.51,3.41,10a23.93,23.93,0,0,1-.37,10.61,25.83,25.83,0,0,0,.38-5.26,22.37,22.37,0,0,0-.69-5.18c-1-3.35-2.62-6.49-3.68-9.93a17.64,17.64,0,0,1-.85-5.37A19.48,19.48,0,0,1,321,168a29.12,29.12,0,0,0,1.14-5.12,6.29,6.29,0,0,0-.07-2.56A2.17,2.17,0,0,0,320.19,158.8Z" style="fill:#263238"></path><path d="M347,221.32l-38.33-9.43s5,24.49,10.69,32.67,14.37,16.19,25,10.69C352.3,251.13,347,221.32,347,221.32Z" style="fill:#FFC727"></path><path d="M344.16,228.54c-1.94-.61-4-1.06-5.93-1.55s-4-1-6-1.41c-4-.89-8-1.76-12-2.58l-3.28-.65c-1.18-.22-2.38-.29-3.55-.52a.07.07,0,0,0,0,.14c1,.24,1.91.62,2.88.87s2,.51,3,.75q3,.71,6,1.38c4,.89,8,1.77,12,2.54,2.26.43,4.54.93,6.82,1.23A.1.1,0,1,0,344.16,228.54Z" style="fill:#263238"></path><path d="M345.74,221c.44.05.86.11,1.29.18l.07,0,0,.09a62.39,62.39,0,0,1,1.71,10.06,44.78,44.78,0,0,1-.11,10.22c-.25-3.4-.54-6.76-.87-10.12s-.7-6.73-1-10.12l.09.1C346.56,221.31,346.15,221.16,345.74,221Z" style="fill:#263238"></path><path d="M372.66,166.84s0-.05.06,0c.16,3.7.76,12.25,6.37,11.13,2.26-.45,4.19-2.12,5.78-3.73a32.54,32.54,0,0,0,4.29-5.47,48.67,48.67,0,0,0,3.81-6.84c0-.1.19,0,.15.08-1.11,2.39-2,4.85-3.32,7.13a28.31,28.31,0,0,1-4.62,6c-1.7,1.65-3.77,3.34-6.17,3.7a4.59,4.59,0,0,1-5-3A21,21,0,0,1,372.66,166.84Z" style="fill:#263238"></path><path d="M378.11,174.57c5.84.69,12.12-7.21,14.09-13.21.13-.41-1.17-4.23-2.53-9-.82-2.87-1.65-6.08-2.21-9.07l-17.89,8a48.34,48.34,0,0,1,3.93,11.14,6.07,6.07,0,0,1,.1,1.25c0,.06,0,.13,0,.21C373.67,166.36,373.71,174.05,378.11,174.57Z" style="fill:#ad6359"></path><path d="M369.57,151.36a48.66,48.66,0,0,1,3.94,11.14,6.71,6.71,0,0,1,.09,1.24,1.65,1.65,0,0,0,0,.21,9.47,9.47,0,0,0,1.94-.25c11.31-2.62,11.29-16.19,11.06-20Z" style="fill:#263238"></path><path d="M389.88,123.49c2.2,6.71-1,26.3-5.68,30.75-6.84,6.45-18.23,7.29-23.76-1-5.36-8-.79-33.46,4.5-37.53C372.72,109.75,386.63,113.57,389.88,123.49Z" style="fill:#ad6359"></path><path d="M370.5,135.91s.09.08.08.13c-.22,1.31-.26,2.85.87,3.45,0,0,0,.09,0,.07C370,139.16,370.07,137.12,370.5,135.91Z" style="fill:#263238"></path><path d="M371.86,134.7c2.14.14,1.71,4.4-.27,4.28S370.07,134.59,371.86,134.7Z" style="fill:#263238"></path><path d="M362.74,135.12c0-.05-.11.06-.11.11-.09,1.33-.42,2.83-1.66,3.15a0,0,0,0,0,0,.07C362.45,138.39,362.87,136.39,362.74,135.12Z" style="fill:#263238"></path><path d="M361.7,133.63c-2.11-.38-2.7,3.87-.75,4.21S363.47,133.94,361.7,133.63Z" style="fill:#263238"></path><path d="M373,132.26a15.46,15.46,0,0,1-1.6-.74,3,3,0,0,1-1.48-1.07.91.91,0,0,1,.26-1.08,2.25,2.25,0,0,1,2.27,0,3.28,3.28,0,0,1,1.75,1.61A1,1,0,0,1,373,132.26Z" style="fill:#263238"></path><path d="M360.27,131.32c.6,0,1.14-.18,1.73-.27a2.91,2.91,0,0,0,1.72-.62.89.89,0,0,0,.06-1.1,2.24,2.24,0,0,0-2.18-.65,3.28,3.28,0,0,0-2.13,1.06A1,1,0,0,0,360.27,131.32Z" style="fill:#263238"></path><path d="M370.73,147.72c-.29.34-.56.8-1,.88a3.42,3.42,0,0,1-1.45-.19c-.05,0-.08,0-.05.07a1.8,1.8,0,0,0,1.74.56,1.41,1.41,0,0,0,.93-1.27A.07.07,0,0,0,370.73,147.72Z" style="fill:#263238"></path><path d="M369.44,143.76a4.51,4.51,0,0,1-3.2,1.7,5.89,5.89,0,0,1-1.62-.09,5.63,5.63,0,0,1-.59-.14.32.32,0,0,1-.24-.32h0c0-.05.37-2.82.37-2.82-.39.15-2.37.82-2.29.29.71-4.37,1.49-9.24,3.11-13.44a.12.12,0,0,1,.24.06c-.51,4.23-1.76,8.34-2.34,12.58a7.7,7.7,0,0,1,2.19-.43c.07,0-.54,3.44-.54,3.47a6.26,6.26,0,0,0,4.8-1C369.44,143.56,369.53,143.66,369.44,143.76Z" style="fill:#263238"></path><path d="M365.29,144.84a5.22,5.22,0,0,0,2,1.83,2.38,2.38,0,0,0,1.43.23c1.07-.18,1.19-1.14,1.07-2a5.59,5.59,0,0,0-.35-1.3A6.9,6.9,0,0,1,365.29,144.84Z" style="fill:#263238"></path><path d="M367.26,146.67a2.38,2.38,0,0,0,1.43.23c1.07-.18,1.19-1.14,1.07-2A2.46,2.46,0,0,0,367.26,146.67Z" style="fill:#ff9cbd"></path><path d="M390.77,141.06c-5.25.1-7.66-6.27-6.18-11.22,0,0-14,1.14-14.1-10.06a12.66,12.66,0,0,1-9.91,4.83l-1.11,4c-1.4-.49-2.76-4.89.89-7.89,0,0,.52-5.56,4.79-8.69a7.62,7.62,0,0,1,8.24-.73,11.5,11.5,0,0,1,8.49-1.64,9.8,9.8,0,0,1,7,5.69s6.82,1.66,7.75,6.61a10.2,10.2,0,0,1-1.77,8.11s1.63,2,.54,6.14C394.66,138.9,392.35,141,390.77,141.06Z" style="fill:#263238"></path><path d="M370.84,118.81a13.08,13.08,0,0,0-.16,2.72,10.74,10.74,0,0,0,.37,2.66,7,7,0,0,0,3,4.17,11.35,11.35,0,0,0,5.06,1.55c.91,0,1.82.1,2.72.07s1.82-.12,2.75-.14c-.9.17-1.81.3-2.73.45s-1.84.07-2.77.11a11.21,11.21,0,0,1-5.38-1.5,7.35,7.35,0,0,1-3.14-4.59A11.12,11.12,0,0,1,370.84,118.81Z" style="fill:#263238"></path><path d="M388.84,115.39a12.82,12.82,0,0,1,5.07,1.37,7.75,7.75,0,0,1,3.7,3.81,8.39,8.39,0,0,1,.53,2.65,8,8,0,0,1-.27,2.67,7.22,7.22,0,0,1-3.05,4.22,7.89,7.89,0,0,0,2.57-4.34,8.82,8.82,0,0,0-.38-5,6.57,6.57,0,0,0-1.34-2.08,9.77,9.77,0,0,0-2-1.54A16.24,16.24,0,0,0,388.84,115.39Z" style="fill:#263238"></path><path d="M373.39,111.34a13.15,13.15,0,0,0-4.05-1,7.47,7.47,0,0,0-7,3.32,13.89,13.89,0,0,0-1.85,3.74,10.34,10.34,0,0,1,1.44-4,7.16,7.16,0,0,1,7.47-3.53A9.9,9.9,0,0,1,373.39,111.34Z" style="fill:#263238"></path><path d="M363.35,124.9a14.54,14.54,0,0,0,4.33-2.06,8.8,8.8,0,0,0,1.72-1.62,11.4,11.4,0,0,0,1.27-2,5.89,5.89,0,0,1-.87,2.34,6.53,6.53,0,0,1-1.74,1.85,8.09,8.09,0,0,1-2.25,1.14A7.68,7.68,0,0,1,363.35,124.9Z" style="fill:#263238"></path><path d="M371,143.27a5.86,5.86,0,0,1-4.17-7.13h0a5.84,5.84,0,1,1,5.61,7.32A6.55,6.55,0,0,1,371,143.27Zm-3.41-6.93a5.05,5.05,0,1,0,6.17-3.61,5.44,5.44,0,0,0-1.25-.17A5.08,5.08,0,0,0,367.6,136.34Z" style="fill:#455a64"></path><path d="M359.29,141.71c-2.37-.29-4-3.13-3.59-6.32a6.94,6.94,0,0,1,1.73-3.9,3.63,3.63,0,0,1,6.17.77,6.91,6.91,0,0,1,.72,4.2c-.37,3-2.41,5.29-4.65,5.28ZM358,132a6.16,6.16,0,0,0-1.53,3.46c-.34,2.77,1,5.22,2.92,5.46s3.82-1.81,4.16-4.58a6.24,6.24,0,0,0-.63-3.73,3.09,3.09,0,0,0-2.29-1.72,1.37,1.37,0,0,0-.29,0A3.19,3.19,0,0,0,358,132Z" style="fill:#455a64"></path><path d="M366.9,136.83l.48-.45c-.66-.71-2.27-1.76-3.62-.63l.42.5C365.39,135.24,366.84,136.76,366.9,136.83Z" style="fill:#455a64"></path><path d="M393.66,142.21l.62-.23c-.11-.28-1.08-2.82-2.51-3.24s-13.54-1.84-13.92-1.85l0,.65c2.54.08,12.73,1.53,13.76,1.83S393.41,141.52,393.66,142.21Z" style="fill:#455a64"></path><path d="M385.28,140.67s4.41-6.31,7.28-4.74-.45,10.72-3.81,12a3.43,3.43,0,0,1-4.59-1.84Z" style="fill:#ad6359"></path><path d="M391.54,138.53a0,0,0,0,1,0,.09c-2.36,1-3.6,3.14-4.47,5.41a1.9,1.9,0,0,1,2.83-.52c.06.05,0,.14-.07.13a2.1,2.1,0,0,0-2.31.73,10.1,10.1,0,0,0-1.11,1.88c-.11.21-.49.1-.41-.15l0,0C386,143,388.31,138.83,391.54,138.53Z" style="fill:#263238"></path><path d="M373.41,161.7l5.51,10.51L391.12,157l4.31,4.05s-11.08,23.37-11.27,22.39l-5.47-9-5.85,7.23-1.14-16.54Z" style="fill:#ebebeb"></path><path d="M371.81,173.51c-.09-2.74-.27-5.5-.24-8.24,0-.09.15-.15.18,0,.81,2.57,1.13,13,1.39,15.53l0,0c.24-.31,5.45-6.39,5.52-6.31,1.13,1.4,5.14,7.94,5.43,8.55,1.75-3.72,8.53-17.25,10.69-20.81a.09.09,0,0,1,.17.08c-1.48,3.88-10.43,22.09-10.59,22a106,106,0,0,1-5.74-9.5c-.85,1.3-6,8.09-6.11,7.69A87,87,0,0,1,371.81,173.51Z" style="fill:#263238"></path><path d="M440.52,254.33c-8.19.78-18.08-6-43.59-26.29-3.54-2.81,9.6-33.07,13.53-30.26,4.94,3.54,23.36,18.34,24.57,19.59C445.24,227.93,446.07,253.8,440.52,254.33Z" style="fill:#ad6359"></path><path d="M419.47,207.48S412.41,196.64,407,192.1c-7.33-6.09-16.15-8.32-19.91-9-7.84-1.49-27.83.32-28.31,6.17-.44,5.29,19.9,2.41,19.9,2.41s-21.22-.48-20.57,6,24.06,1.78,24.06,1.78-21.81,0-20.09,6.56c1.3,5,22.75,1.91,22.75,1.91s-18.75.12-17.63,5.29c1.23,5.7,21.21,4.12,21.21,4.12,5.05,12.64,12.89,16.47,18.62,18.64C408.36,236.46,419.47,207.48,419.47,207.48Z" style="fill:#ad6359"></path><path d="M386,191.33c-2.49-.14-5-.31-7.51-.23s-5,.24-7.46.54a42.72,42.72,0,0,0-9.53,2.12c5.61-1.49,14.54-1.9,17-2s5-.27,7.47-.35C386.05,191.43,386,191.34,386,191.33Z" style="fill:#263238"></path><path d="M386.42,200.34c-3.19-.05-6.36-.22-9.55-.12s-6.18.45-9.34.76c-.24,0-.15.15.09.13,3.18-.18,6.12-.1,9.29-.25s6.35-.41,9.51-.44C386.47,200.41,386.46,200.34,386.42,200.34Z" style="fill:#263238"></path><path d="M388.18,208a71.54,71.54,0,0,0-14.61.93c-.24,0-.1.18.15.16,4.85-.4,8.65-.75,14.45-.92C388.26,208.17,388.28,208,388.18,208Z" style="fill:#263238"></path><path d="M419.64,203.3l-11.95,37.36s27.14,17.55,33.47,13.47,3.22-26.07-3.39-34.68C435,215.86,419.64,203.3,419.64,203.3Z" style="fill:#FFC727"></path><path d="M419.25,204.54l.46-1.22-.11,0c2.54,2.25,5.09,4.49,7.6,6.77s5,4.54,7.41,6.93a39.4,39.4,0,0,1,3.38,3.72,29.47,29.47,0,0,1,2.63,4.25,32.07,32.07,0,0,1,3,9.63,26.74,26.74,0,0,0-2.31-9.93,23.75,23.75,0,0,0-2.59-4.47,38.14,38.14,0,0,0-3.4-3.86c-2.43-2.4-5-4.66-7.57-6.86s-5.28-4.28-8-6.29l-.08-.05,0,.09Z" style="fill:#263238"></path><path d="M425.35,212.93c-.71,1.83-1.28,3.73-1.88,5.6s-1.19,3.74-1.75,5.63c-1.12,3.76-2.23,7.53-3.28,11.32-.29,1-.58,2.07-.85,3.11s-.43,2.27-.73,3.38c0,.09.1.12.13,0,.29-.92.72-1.8,1-2.72s.62-1.9.92-2.86q.87-2.82,1.72-5.64c1.13-3.76,2.24-7.54,3.24-11.33.57-2.15,1.2-4.3,1.64-6.47A.1.1,0,0,0,425.35,212.93Z" style="fill:#263238"></path><path d="M408.75,237.33c-.27,1.14-.58,2.26-.88,3.38l-.07-.21c2.33,1.42,4.7,2.8,7.07,4.15s4.77,2.68,7.19,3.94c1.2.64,2.44,1.22,3.65,1.84s2.47,1.16,3.72,1.68a39.24,39.24,0,0,0,7.77,2.54,28.54,28.54,0,0,1-8-1.87,61.22,61.22,0,0,1-7.56-3.32c-2.46-1.24-4.85-2.6-7.19-4.05s-4.62-3-6.84-4.6l-.12-.09.05-.12C407.92,239.51,408.32,238.41,408.75,237.33Z" style="fill:#263238"></path></g></svg>
