<svg xmlns="http://www.w3.org/2000/svg" viewBox="0 0 500 500"><g id="freepik--Character--inject-69"><path d="M387.83,329.31c-2.76.24-75.66-17.5-78-19.92-.26-.27.21-10.94,1.54-19.46.06-.41-27.48-32.25-27.48-32.25l45-20.75,24.85,44.33,6.46,11.53s25.34,22.53,27.64,25.48S390.58,329.08,387.83,329.31Z" style="fill:#ebebeb"></path><path d="M389.86,329.59c-2.87.25-79-18-81.42-20.5-.94-.95.11-5.65,2.92-19.16l49.34,2.89s26.72,22.19,29.13,25.25S392.74,329.34,389.86,329.59Z" style="fill:#FFC727"></path><path d="M389.5,326.29c-12.68-3.37-64.14-15.76-76.93-18.12-.1,0-.12.05,0,.08,12.5,3.61,64.06,15.58,76.9,18.25C389.72,326.55,389.77,326.36,389.5,326.29Z" style="fill:#263238"></path><path d="M385.59,314.16a10.52,10.52,0,0,0-8.38,1.29,10.18,10.18,0,0,0-4.48,6.13c0,.07.12.11.15,0a12.2,12.2,0,0,1,12.67-7.29A.08.08,0,0,0,385.59,314.16Z" style="fill:#263238"></path><path d="M366.05,297.45c-5.08-1.29-11.43-.9-15.61,2.51-.16.13,0,.36.2.32A72.94,72.94,0,0,1,366,298.1.33.33,0,0,0,366.05,297.45Z" style="fill:#263238"></path><path d="M369.63,299.93c-5.09-1.29-11.44-.9-15.61,2.51-.16.13,0,.36.2.32a72.75,72.75,0,0,1,15.35-2.18A.33.33,0,0,0,369.63,299.93Z" style="fill:#263238"></path><path d="M373.2,302.41c-5.09-1.29-11.44-.9-15.61,2.51-.16.13,0,.36.2.32a72.84,72.84,0,0,1,15.35-2.18A.33.33,0,0,0,373.2,302.41Z" style="fill:#263238"></path><path d="M376.77,304.9c-5.08-1.3-11.43-.91-15.61,2.5-.16.13,0,.36.2.32a72.94,72.94,0,0,1,15.35-2.18A.32.32,0,0,0,376.77,304.9Z" style="fill:#263238"></path><path d="M374.83,285.15c-2.07-2.76-5.82-1.44-7.95.4a27.56,27.56,0,0,0-7.77,11.94c0,.11,0,.17.13.19a.64.64,0,0,0,.82.63c4.24-1.64,9-2.88,12.57-5.77C374.74,290.85,376.79,287.76,374.83,285.15ZM366,294.5c-2.06.86-4.16,1.61-6.19,2.55,1.52-2.33,2.94-4.7,4.69-6.88a30.51,30.51,0,0,1,2.69-3c1.51-1.42,7.55-4.49,6.72,1.19C373.43,291.49,368.43,293.48,366,294.5Z" style="fill:#263238"></path><path d="M346,296.35c4.28,1.75,9.17,1.58,13.7,1.95a.64.64,0,0,0,.6-.84.14.14,0,0,0,.07-.21A27.51,27.51,0,0,0,349.5,288c-2.56-1.16-6.54-1.35-7.74,1.89C340.63,293,343.48,295.33,346,296.35Zm-2.39-3.65c-2.4-5.2,4.25-4,6.11-3.05a29.5,29.5,0,0,1,3.43,2.11c2.3,1.58,4.33,3.46,6.45,5.25-2.21-.32-4.43-.44-6.66-.68C350.27,296.05,344.92,295.58,343.59,292.7Z" style="fill:#263238"></path><path d="M356.19,283.25l-50.35,10.62S275,245.22,263.06,233.39l0,0a18.33,18.33,0,0,0-2.17-1.88h0a10.38,10.38,0,0,0-3.72-.7h0c-15.13-.91-65.4,7.11-100.48,7l15-22.81,6.64-10.12c39.09-6.9,86.41-26,108.88-16.36C311.52,198.92,356.19,283.25,356.19,283.25Z" style="fill:#37474f"></path><path d="M349.3,275c-8.57,1.64-6.14,1.06-14.69,2.79-4.18.85-25.22,5.06-29,6.5-.08,0-.05.17,0,.17,4-.22,25-4.88,29.15-5.81,8.51-1.89,6.05-1.43,14.55-3.41A.12.12,0,0,0,349.3,275Z" style="fill:#263238"></path><path d="M305.47,283.6c-6.34-9.26-35.43-55.11-40.75-56.66-4.85-1.41-99.63,6.38-101,6.47-.1,0-.09.17,0,.16,11.22-.83,97.95-6.46,100.48-5.63,5.27,1.72,39.95,54.85,40.79,55.95C305.19,284.18,305.69,283.92,305.47,283.6Z" style="fill:#263238"></path><path d="M128.85,219.56s-1.25,28.8,14.15,42.15c18.42,16,132.83,4.63,150.25-2.2s16.22-35.55-3.61-41c-18.87-5.19-101-3.8-103-4.45s-8.23-9.38-8.23-9.38Z" style="fill:#37474f"></path><path d="M153.07,217.27c0-.14-.24-.08-.23,0a15.82,15.82,0,0,1-3.08,10.38c-2.52,3.31-6.43,5.32-9.95,7.38-.34.2,0,.73.31.6a31.89,31.89,0,0,0,6.25-3.16,15.73,15.73,0,0,0,4.59-4.31A13.88,13.88,0,0,0,153.07,217.27Z" style="fill:#263238"></path><path d="M185.73,212.32c-.88-1-1.82-1.92-2.73-2.87-2.15-2.26-4.31-4.53-6.55-6.7-.21-.21-.58.12-.38.35,1.52,1.76,3.13,3.46,4.71,5.17.81.88,1.62,1.75,2.44,2.62a17.85,17.85,0,0,1,2.29,2.56,1.35,1.35,0,0,1-1.11,2.09,3.7,3.7,0,0,1-2.61-.78,34.77,34.77,0,0,1-4.63-4.37l-2.71-2.68c-1-.94-2-1.82-3-2.76-.06-.06-.17,0-.11.1.86,1,1.66,2.13,2.52,3.17s1.73,2.07,2.62,3.09,1.7,1.91,2.59,2.83a9.93,9.93,0,0,0,2.57,2c1.58.8,4.23.83,4.92-1.18A2.79,2.79,0,0,0,185.73,212.32Z" style="fill:#263238"></path><path d="M290.83,259.77c-6.11.49-12.21,1.22-18.32,1.72s-12.13.91-18.2,1.23q-18.3.94-36.64.81c-12.34-.09-25.68-.5-38-1.45-5.89-.45-11.86-.76-17.71-1.65a27.7,27.7,0,0,1-14.27-6.22c-8.38-7.18-12.14-18.27-14.06-29-.26-1.43-.49-2.87-.7-4.32a.08.08,0,0,0-.15,0c1.39,11,3.82,22.41,11.31,30.87a27.69,27.69,0,0,0,11.86,8.1c5.6,1.85,11.7,2,17.53,2.42,12.36.91,25.75,1.38,38.14,1.58s24.94,0,37.39-.54,24.9-1.52,37.29-2.89c1.52-.17,3-.35,4.53-.57C290.93,259.89,290.92,259.76,290.83,259.77Z" style="fill:#263238"></path><path d="M305.53,232a19.8,19.8,0,0,0-8.92-11.22c-4.58-2.73-9.94-3.78-15.2-4.22-6-.5-12-.57-17.92-.78q-18.37-.66-36.75-1c-12.24-.25-38.61-.68-40.09-.65-.12,0-.14.22,0,.23,11.84.59,22.61,1,34.46,1.4s23.81.75,35.72,1.2q8.9.33,17.79.69c5.5.23,11.15.45,16.4,2.24,4.51,1.54,8.63,4.21,11.14,8.35a21.13,21.13,0,0,1,2.59,13.49,24.06,24.06,0,0,1-5,11.86,20.52,20.52,0,0,1-10.26,7.08c-1.06.3-2.35.55-3.33.8-.08,0-.15.19-.07.18,8.82-.31,16.58-7.24,19.26-15.48A23.65,23.65,0,0,0,305.53,232Z" style="fill:#263238"></path><path d="M183.15,142.44c23.55,19,36.31,35.11,38.55,46.34,3.1,15.54-6.3,20.41-10.61,20.68-11.75.75-32.14-39.89-39.29-58.75C165,132.84,178,138.26,183.15,142.44Z" style="fill:#FFC727"></path><path d="M215.23,208.18a10.45,10.45,0,0,1-4.14,1.29c-11.75.74-32.14-39.9-39.29-58.77-2.86-7.55-2.21-10.93-.09-12Z" style="opacity:0.1"></path><path d="M126.09,221.16c.18.19,69.39-15.26,70-16.07.89-1.14-11.7-53.18-24.82-68.67-3.28-3.87-13.68-3.56-18.32.38C130,156.33,125.43,220.49,126.09,221.16Z" style="fill:#FFC727"></path><path d="M145.66,141.23c-19.86,18.12-38.47,48.27-37.44,64.29,1,15.82,6.41,13.88,8,13.66,9.5-1.33,28.74-47,34.26-65.41S150.57,136.74,145.66,141.23Z" style="fill:#FFC727"></path><path d="M128,205.9c1-2.08,2-4.13,2.88-6.22l2.84-6.22c1.88-4.16,3.79-8.3,5.6-12.48s3.68-8.34,5.46-12.54c.9-2.09,1.78-4.19,2.62-6.31s1.66-4.25,2.47-6.39a124,124,0,0,1-4.3,13c-1.62,4.28-3.43,8.47-5.24,12.67s-3.8,8.31-5.84,12.4S130.3,202,128,205.9Z" style="fill:#263238"></path><path d="M148,161.21a17.7,17.7,0,0,1,1.15-2.16c.21-.34.41-.69.64-1s.44-.68.7-1a6.16,6.16,0,0,1-.87,2.32A6.94,6.94,0,0,1,148,161.21Z" style="fill:#263238"></path><path d="M222.17,167.14c-.22-7.52-1.2-18.08-3.61-20.53S206.76,135.35,204,134s-15.26-7.67-17.8-6.55c-2,.9-.31,6.17,5.62,9.25a90.67,90.67,0,0,1,9.26,5.82c1.52.85,4.77,6.4,3.49,8.56-.76,1.27-4.82,2.42-7.13,1.06s-2.38-6.21-4.9-8.77-7.43-2.82-7.86-1.53,1.12,2.08,3.14,6.83c1.29,3.05.65,10,3.76,15.32a86.06,86.06,0,0,1,4,9.66Z" style="fill:#ad6359"></path><path d="M190.13,141.06a4.72,4.72,0,0,1-2.3-1.35,2,2,0,0,1-.45-1.05,2.17,2.17,0,0,1,.05-.62,1,1,0,0,1,.3-.57c.06,0,0-.09,0-.05a2.23,2.23,0,0,1-.26.27,2.46,2.46,0,0,0-.17.27,1.53,1.53,0,0,0-.16.59,2,2,0,0,0,.34,1.28,3.36,3.36,0,0,0,2.67,1.31A0,0,0,0,0,190.13,141.06Z" style="fill:#263238"></path><path d="M218.56,146.61c-1.95-4-7.26-11.28-13-14.21-3.87-2-18.48,3.26-18.37,6s2.49,3,6,2.93c1.3,0,8.33-1.71,9.33-.17,1.43,2.22,2.78,9.42,2.78,9.42Z" style="fill:#ad6359"></path><path d="M187.68,137.36c2-2.65,6-3.76,9.84-4.55.06,0,.08.08,0,.09-1,.21-7.41,2.35-9.83,4.51C187.69,137.43,187.66,137.39,187.68,137.36Z" style="fill:#263238"></path><path d="M218.56,146.61c-1.95-4-7.26-11.28-13-14.21-3.87-2-15.79,5.47-15.67,8.16s3.5,3.28,7.4,2.38c1.27-.29,5.66-2.72,6.66-1.17,1.43,2.22,4.92,7.72,4.92,7.72Z" style="fill:#ad6359"></path><path d="M206.91,146.1c-.31-.63-.42-.84-.74-1.46s-.66-1.23-1-1.82a5.4,5.4,0,0,0-1.1-1.45,2.74,2.74,0,0,0-1.63-.51,9.47,9.47,0,0,0-3.77,1.2c-1.31.57-4,1.44-5.94,1a3.73,3.73,0,0,1-1.51-.59,2.44,2.44,0,0,1-.85-.84c-.69-1.54.55-3.07,1.77-4.12a25.11,25.11,0,0,1,7.95-4.25c.68-.25,1.37-.48,2.06-.71a5.91,5.91,0,0,1,2.46-.42c1.37.14,3.45,1.77,4.1,2.26,0,0,.1,0,0-.08-.78-.61-2.68-2.54-4.89-2.67a7.32,7.32,0,0,0-2.38.52c-.8.25-1.6.53-2.38.82a30.48,30.48,0,0,0-4.47,2,12.84,12.84,0,0,0-3.79,2.87,3.85,3.85,0,0,0-.66,3.9,3.35,3.35,0,0,0,2.33,1.59,6.77,6.77,0,0,0,1.74.17,27,27,0,0,0,3.89-.7c1.25-.34,2.41-1,3.68-1.27a2.34,2.34,0,0,1,1.77.31,6.23,6.23,0,0,1,1.2,1.36,19.36,19.36,0,0,1,1.94,2.88C206.85,146.42,207.05,146.36,206.91,146.1Z" style="fill:#263238"></path><path d="M220,150c-.68-1.85-1.35-9.26-2.51-11.63s-6.71-10.76-9.73-10.75c-3.79,0-.62,7.19,1,10.19s.82,7.68.82,7.68Z" style="fill:#ad6359"></path><path d="M206.53,132.91c.6,1,1.11,2,1.62,3a22.44,22.44,0,0,1,1.37,2.94,9.91,9.91,0,0,1,.4,3.16c0,.53,0,1.05-.1,1.58s-.18,1.14-.22,1.71c0,.06-.1.06-.1,0a23.63,23.63,0,0,0-.07-3.15,13.4,13.4,0,0,0-.6-3.2c-.66-2.06-1.76-3.95-2.44-6C206.36,132.89,206.49,132.85,206.53,132.91Z" style="fill:#263238"></path><path d="M209.45,146.3a10.77,10.77,0,0,1-1.54,5.16,19.93,19.93,0,0,1-1.46,2.31,22.13,22.13,0,0,1-1.79,2,20.61,20.61,0,0,0-3.21,4.08,21.08,21.08,0,0,0-2,4.87,14,14,0,0,1,1.24-5.26,16.49,16.49,0,0,1,3.15-4.44,25.92,25.92,0,0,0,3.28-4.06A16,16,0,0,0,209.45,146.3Z" style="fill:#263238"></path><path d="M211.18,209c-7.18-1.86-10.5-14.64-16.27-37.1-1-3.94,20.82-24.82,23-21.06,2.74,4.75,8.65,30,8.79,36.75C227,200.83,219.57,211.16,211.18,209Z" style="fill:#ad6359"></path><path d="M197.88,184.41l26.25-20s4.34,20.47,2.73,28.63-5.6,17.23-15.59,16.56C203.79,209.05,197.88,184.41,197.88,184.41Z" style="fill:#FFC727"></path><path d="M203.6,201.14c-.7-1.31-1.31-2.66-1.9-4s-1.11-2.74-1.62-4.13-1-2.8-1.33-4.23a24.94,24.94,0,0,1-.87-4.36c.47,1.41,1,2.78,1.48,4.17l1.5,4.14c.49,1.39,1,2.78,1.44,4.18S203.21,199.7,203.6,201.14Z" style="fill:#263238"></path><path d="M202.47,189c1.29-1.12,2.69-2.13,4-3.17s2.72-2.07,4.1-3.08c2.76-2,5.53-4,8.32-6,.76-.54,1.53-1.07,2.3-1.6s1.73-1,2.55-1.58a.06.06,0,1,1,.07.09c-.66.51-1.26,1.11-1.92,1.64s-1.38,1.06-2.08,1.58c-1.36,1-2.74,2-4.11,3-2.76,2-5.52,4-8.34,6-1.6,1.09-3.17,2.24-4.82,3.23A.09.09,0,0,1,202.47,189Z" style="fill:#263238"></path><path d="M166.12,153.1S153.88,141,145.91,141.26l-6.79,6s-2.22.72-2.9-.69c-1.69-3.48-2-11.9,5.27-17.33,6.65-5,17.5-4.56,26.54-2.13,8.69,2.33,16.21,8.13,13.51,13.79S166.12,153.1,166.12,153.1Z" style="fill:#FFC727"></path><path d="M167,150.44s10-7.08,11.05-11.3-7.38-8.29-12.84-9.89c-8.44-2.49-14.19-2-19,2.52S167,150.44,167,150.44Z" style="opacity:0.1"></path><path d="M166.63,149.86c-3.17-.19-9.09-6.77-11.12-12-.14-.36.84-3.82,1.83-8.08.59-2.59,1.19-5.48,1.54-8.16l16.28,6.3a43.23,43.23,0,0,0-3,10.08,6.06,6.06,0,0,0,0,1.12,1.07,1.07,0,0,1,0,.18C172.22,141.43,171.58,150.16,166.63,149.86Z" style="fill:#ad6359"></path><path d="M172.15,139.11a1.07,1.07,0,0,1,0,.18,9.86,9.86,0,0,1-1.74-.13c-9.53-1.48-10.34-13.44-10.35-17.1l15.11,5.85a43.34,43.34,0,0,0-3,10.08A7,7,0,0,0,172.15,139.11Z" style="fill:#263238"></path><path d="M161.52,101.22c-3.13,5.45-3.92,23.1-.62,27.83,4.79,6.86,14.57,9.65,20.89,3.45,6.12-6,6.74-29,2.87-33.52C179,92.35,166.15,93.16,161.52,101.22Z" style="fill:#ad6359"></path><path d="M173.83,114.6a15.68,15.68,0,0,0,1.55-.28,2.54,2.54,0,0,0,1.53-.59.81.81,0,0,0,0-1,2,2,0,0,0-2-.53,3,3,0,0,0-1.89,1A.87.87,0,0,0,173.83,114.6Z" style="fill:#263238"></path><path d="M185.13,116a15.38,15.38,0,0,1-1.48-.54,2.55,2.55,0,0,1-1.41-.83.82.82,0,0,1,.14-1,2,2,0,0,1,2-.19,2.94,2.94,0,0,1,1.69,1.3A.86.86,0,0,1,185.13,116Z" style="fill:#263238"></path><path d="M172.35,128c.24.32.46.74.88.85a3.22,3.22,0,0,0,1.31-.11s.07,0,.05.07a1.61,1.61,0,0,1-1.6.41,1.26,1.26,0,0,1-.76-1.18C172.22,127.93,172.32,127.92,172.35,128Z" style="fill:#263238"></path><path d="M174.13,124.63a4.07,4.07,0,0,0,2.4,2.2,5.26,5.26,0,0,0,1.43.28.88.88,0,0,0,.28,0h.26a.3.3,0,0,0,.28-.22h0s0-.08,0-.12h0v-.11c.17-.9.29-2.29.29-2.29.3.22,1.87,1.24,1.92.76a60.73,60.73,0,0,0,.31-12.36.11.11,0,0,0-.22,0c-.5,3.78-.34,7.63-.78,11.44a6.89,6.89,0,0,0-1.81-.86c-.13,0-.19,2.69-.29,3.09l0,0a5.59,5.59,0,0,1-3.94-1.93C174.18,124.46,174.07,124.53,174.13,124.63Z" style="fill:#263238"></path><path d="M177.49,126.57a4.8,4.8,0,0,1-2.13,1.18,2.06,2.06,0,0,1-1.31-.12c-.9-.39-.79-1.25-.5-2a5.1,5.1,0,0,1,.59-1.07A6.23,6.23,0,0,0,177.49,126.57Z" style="fill:#263238"></path><path d="M175.36,127.75a2.06,2.06,0,0,1-1.31-.12c-.9-.39-.79-1.25-.5-2A2.22,2.22,0,0,1,175.36,127.75Z" style="fill:#ff9abb"></path><path d="M175.79,117.67s-.1,0-.1.09c-.11,1.18-.43,2.51-1.54,2.77a0,0,0,1,0,0,.06C175.47,120.57,175.88,118.8,175.79,117.67Z" style="fill:#263238"></path><path d="M174.9,116.31c-1.87-.37-2.49,3.39-.76,3.74S176.47,116.63,174.9,116.31Z" style="fill:#263238"></path><path d="M182.45,118.57s.08.08.07.12c-.24,1.16-.32,2.53.67,3.1,0,0,0,.07,0,.06C181.91,121.45,182,119.63,182.45,118.57Z" style="fill:#263238"></path><path d="M183.7,117.54c1.89.18,1.39,4-.37,3.79S182.11,117.39,183.7,117.54Z" style="fill:#263238"></path><path d="M160.38,114.75c2.55.7,4.5-5,4.5-5s5.92,3.46,8.25-5.08c0,0,6.86,4.43,12.16,3.12,4.53-1.12,8.39-7.32,6.51-12.09-1.06-2.68-5.13-6-13.77-1.07,0,0-7.37-8.51-13.52,1.45,0,0-4.79-.64-6.51,3.73C155.28,106.65,158.17,114.15,160.38,114.75Z" style="fill:#263238"></path><path d="M173.28,104c0-.09-.14-.1-.14,0-.14,2.19-.32,4.56-2.41,5.82a5.16,5.16,0,0,1-6.27-.51c-.1-.09-.26.06-.15.15a5.62,5.62,0,0,0,6.18.91C173,109.22,173.52,106.52,173.28,104Z" style="fill:#263238"></path><path d="M160.91,113.48c-3-2.73-5-6.41-4.2-10.62a8.22,8.22,0,0,1,2.88-5.19c1.5-1.14,3.31-1.23,5-1.71a0,0,0,0,0,0-.09c-10-.05-11.3,13-4,18C160.84,114,161.12,113.66,160.91,113.48Z" style="fill:#263238"></path><path d="M193,96c-2.48-6.56-11.18-4.81-15.31-1.1,0,0,0,0,0,0,3.57-2.67,10-4.53,13.48-.8,4.15,4.51-.24,13-6.22,12.4-.18,0-.22.28,0,.31C190.29,107.84,194.8,100.91,193,96Z" style="fill:#263238"></path><path d="M162,115.85s-2.7-6.3-5.49-5.45-1.55,9.43,1.16,11.13a3,3,0,0,0,4.32-.77Z" style="fill:#ad6359"></path><path d="M156.91,112.85a0,0,0,0,0,0,.07c1.88,1.27,2.56,3.4,2.91,5.53a1.68,1.68,0,0,0-2.37-1c-.06,0,0,.12,0,.12a1.88,1.88,0,0,1,1.89,1.06,9,9,0,0,1,.62,1.83c.06.2.41.18.39,0,0,0,0,0,0,0C160.94,117.79,159.67,113.7,156.91,112.85Z" style="fill:#263238"></path><path d="M167,150.44s-9.79-16.73-22.09-18.43l1,9.25s7.34.05,20.21,11.84Z" style="fill:#FFC727"></path><path d="M142.59,141.42a15.59,15.59,0,0,1,6.6.91,28.75,28.75,0,0,1,6,2.85,49.47,49.47,0,0,1,5.49,3.83l2.57,2.17,2.47,2.29.27.25.31-.15a58,58,0,0,0,6.66-4,33,33,0,0,0,3.07-2.36,20.12,20.12,0,0,0,2.69-2.77,34.55,34.55,0,0,1-6.14,4.56c-1.08.67-2.2,1.29-3.32,1.88s-2.26,1.2-3.4,1.73l.58.1L164,150.37c-.85-.76-1.72-1.49-2.6-2.22s-1.82-1.38-2.76-2-1.91-1.26-2.93-1.79a26.61,26.61,0,0,0-6.35-2.6c-.55-.16-1.12-.26-1.68-.38s-1.13-.16-1.71-.19A9.91,9.91,0,0,0,142.59,141.42Z" style="fill:#263238"></path><path d="M139.12,147.23a36.17,36.17,0,0,0,6.79-6,32.31,32.31,0,0,0-3.58,2.78A34.51,34.51,0,0,0,139.12,147.23Z" style="fill:#263238"></path><path d="M162,147.44a67.83,67.83,0,0,0-1.13,11.66c0,2.73,1,12.51,4.07,12.14s-1.93-6.66-2.82-11.82.48-8.94.65-12Z" style="fill:#FFC727"></path><g style="opacity:0.1"><path d="M162,147.44a67.83,67.83,0,0,0-1.13,11.66c0,2.73,1,12.51,4.07,12.14s-1.93-6.66-2.82-11.82.48-8.94.65-12Z"></path></g><path d="M172.77,147.94a98.91,98.91,0,0,1,2.3,11.34c.34,2.45.44,11.37-2.33,11.37s1-6.2,1.23-10.94-1.41-9-1.91-11.73Z" style="fill:#FFC727"></path><g style="opacity:0.1"><path d="M172.77,147.94a98.91,98.91,0,0,1,2.3,11.34c.34,2.45.44,11.37-2.33,11.37s1-6.2,1.23-10.94-1.41-9-1.91-11.73Z"></path></g><path d="M175.5,153.39l38.62-4.16c1-.21,1.64.36,1.52,1.26l-2.23,16.1a2.63,2.63,0,0,1-2,2l-38.62,4.16c-1,.2-1.64-.36-1.51-1.26l2.22-16.1A2.63,2.63,0,0,1,175.5,153.39Z" style="fill:#37474f"></path><path d="M175.22,155.3l38.62-4.16c1-.21,1.64.36,1.51,1.26l-2.22,16.1a2.64,2.64,0,0,1-2,2l-38.62,4.16c-1,.2-1.64-.36-1.51-1.26l2.22-16.1A2.63,2.63,0,0,1,175.22,155.3Z" style="fill:#455a64"></path><path d="M176,159.91a1.38,1.38,0,1,0-1.21-1.53A1.37,1.37,0,0,0,176,159.91Z" style="fill:#263238"></path><path d="M114,219.31c7.13.45,15.53-5.69,37.14-24.05,3-2.54-9.26-28.46-12.59-25.91-4.2,3.21-19.79,16.57-20.81,17.69C109.15,196.5,109.14,219,114,219.31Z" style="fill:#ad6359"></path><path d="M131,178s5.83-9.61,10.46-13.71a39.74,39.74,0,0,1,17-8.4c6.77-1.51,24.19-.49,24.77,4.58.52,4.58-17.22,2.64-17.22,2.64s18.42-1,18,4.64S163.2,170,163.2,170s19-.61,17.64,5.14c-1,4.35-19.72,2.29-19.72,2.29s16.3-.41,15.47,4.1c-.92,5-18.32,4.17-18.32,4.17-4,11.13-10.74,14.67-15.65,16.72C141.43,202.89,131,178,131,178Z" style="fill:#ad6359"></path><path d="M159.62,163.07c2.16-.2,4.35-.41,6.52-.41s4.34.06,6.5.26A36.24,36.24,0,0,1,181,164.5c-4.92-1.15-12.68-1.25-14.85-1.25s-4.33-.1-6.5-.1A0,0,0,1,1,159.62,163.07Z" style="fill:#263238"></path><path d="M159.49,170.9c2.77-.13,5.51-.36,8.29-.37s5.38.23,8.14.41c.21,0,.13.12-.08.12-2.76-.08-5.32.07-8.08,0s-5.52-.18-8.27-.12C159.45,171,159.45,170.91,159.49,170.9Z" style="fill:#263238"></path><path d="M158.17,177.61a61.5,61.5,0,0,1,12.72.4c.21,0,.09.15-.12.14-4.23-.21-7.54-.41-12.58-.39C158.11,177.76,158.08,177.62,158.17,177.61Z" style="fill:#263238"></path><path d="M130.71,174.39l11.42,32.13s-23.1,16-28.71,12.63-3.52-22.56,2-30.23C117.7,185.73,130.71,174.39,130.71,174.39Z" style="fill:#FFC727"></path><path d="M131.09,175.46l-.44-1.05.09,0c-2.14,2-4.29,4-6.41,6.1s-4.24,4.08-6.24,6.23a31.74,31.74,0,0,0-2.84,3.32,25.09,25.09,0,0,0-2.17,3.77,28,28,0,0,0-2.3,8.44,23.06,23.06,0,0,1,1.73-8.69,20.63,20.63,0,0,1,2.13-3.95,31.65,31.65,0,0,1,2.85-3.45c2-2.16,4.19-4.19,6.38-6.17s4.47-3.87,6.8-5.68l.07-.06,0,.08Z" style="fill:#263238"></path><path d="M126,182.92c.67,1.57,1.21,3.2,1.78,4.81s1.14,3.22,1.68,4.84q1.62,4.86,3.16,9.75c.28.89.56,1.78.82,2.68s.45,2,.74,2.91a.06.06,0,0,1-.12,0c-.28-.79-.67-1.55-1-2.33s-.59-1.64-.88-2.46c-.55-1.62-1.1-3.23-1.64-4.85-1.09-3.24-2.16-6.49-3.13-9.76-.56-1.85-1.17-3.7-1.61-5.58C125.82,182.86,126,182.82,126,182.92Z" style="fill:#263238"></path><path d="M141.11,203.66c.44,1,.85,2,1.26,2.92l-.13.1c-5,3.57-10.22,7.06-16,9.33,3.86-2.22,8-4.93,11.8-7.26l4-2.4-.08.23c-.28-1-.57-1.94-.83-2.92Z" style="fill:#263238"></path></g></svg>
