<svg xmlns="http://www.w3.org/2000/svg" viewBox="0 0 500 500"><g id="freepik--character-1--inject-15"><path d="M212.37,473.67c-2.77.9-81.74-.11-84.72-2.06-1.15-.72-1.67-12.23-1.91-26.17V445c0-2.87-.09-5.83-.1-8.83,0-.41,0-.82,0-1.24l3.82-41,52.83.52-5.2,40.59-.06,1.61-.32,8.4,0,.86s30.06,13.91,33.11,16.4S215.14,472.79,212.37,473.67Z" style="fill:#ad6359"></path><path d="M212.37,473.67c-2.77.9-81.74-.11-84.72-2.06-1.15-.72-1.67-12.23-1.91-26.17V445c0-2.87-.09-5.83-.1-8.83,0-.41,0-.82,0-1.24l51.45.14-.06,1.61-.32,8.4,0,.86s30.06,13.91,33.11,16.4S215.14,472.79,212.37,473.67Z" style="fill:#ebebeb"></path><path d="M212.38,473.67c-1.43.46-22.88.42-43.85,0-4.22-.09-8.41-.18-12.41-.29-15-.41-27.32-1-28.47-1.77S126,459.7,125.76,446c0-.19,0-.38,0-.58s0-.3,0-.44h.06l50.9.08,0,.87s30.06,13.9,33.11,16.39S215.15,472.79,212.38,473.67Z" style="fill:#FFC727"></path><path d="M211.52,470.6c-13.31-.5-67-1.24-80.23-.72-.11,0-.11.08,0,.08,13.18.78,66.91,1.09,80.23.86C211.8,470.81,211.8,470.61,211.52,470.6Z" style="fill:#263238"></path><path d="M182.37,445.3c-5.23-1-11.65-.32-15.7,3.36-.15.15.05.37.22.32a73.07,73.07,0,0,1,15.45-3A.34.34,0,0,0,182.37,445.3Z" style="fill:#263238"></path><path d="M186.12,447.63c-5.23-1-11.64-.32-15.69,3.36-.16.14,0,.36.22.31a74.13,74.13,0,0,1,15.44-3A.33.33,0,0,0,186.12,447.63Z" style="fill:#263238"></path><path d="M189.87,450c-5.22-1-11.64-.32-15.69,3.36-.16.14,0,.36.22.31a73.74,73.74,0,0,1,15.44-3A.33.33,0,0,0,189.87,450Z" style="fill:#263238"></path><path d="M168.53,473.67c-4.22-.09-8.41-.18-12.41-.29-15-.41-27.32-1-28.47-1.77S126,459.7,125.76,446c0-.19,0-.38,0-.58s0-.3,0-.44h.06C132.77,449.89,157.35,466.24,168.53,473.67Z" style="fill:#263238"></path><path d="M179.74,445.26H122.86s11.43-132.84,11-135.16c-.57-3-3.93-16.42-8.41-34-1.4-5.49-2.91-11.39-4.48-17.5-4.25-16.53-8.93-34.59-13-50.3-6.12-23.55-10.9-35.68-10.9-35.68h48.21s39.62,113.45,41.2,136.9C187.84,330,179.74,445.26,179.74,445.26Z" style="fill:#263238"></path><path d="M177.22,435.56c-8.69-.18-6.19-.25-14.88-.33-4.25,0-32.19-.28-36.16.38a.09.09,0,0,0,0,.17c4,.66,31.91.41,36.16.37,8.69-.09,6.19-.16,14.88-.34A.13.13,0,0,0,177.22,435.56Z" style="fill:#37474f"></path><path d="M144.54,302c-1.87-8.23-4.66-16.28-7.08-24.35q-7.41-24.6-14.89-49.17c-2.5-8.19-14.06-38.83-15.2-42.9-.47-1.66-.72-.75-.13,1.35,1.21,4.24,21,65,26,81.64q3.77,12.53,7.54,25a101.28,101.28,0,0,1,3.07,12.11,55.56,55.56,0,0,1,.51,12.95c-.54,8.7-1.55,17.39-2.35,26.08s-1.61,17.4-2.41,26.1q-2.4,26-4.75,51.94c-.2,2.2-.39,4.39-.56,6.59-.06.74,1.05.68,1.13,0,1.87-17.12,3.3-34.3,4.91-51.44s3.19-34.13,4.78-51.19c.4-4.29.85-8.58.86-12.88A53.5,53.5,0,0,0,144.54,302Z" style="fill:#37474f"></path><path d="M139.79,172.63c-3.34,25.89-9.71,68.28-14.36,103.49-10.88-42.66-28.38-103.48-28.38-103.48Z" style="fill:#37474f"></path><path d="M153.55,474.45c-2.76.9-81.74.19-84.73-1.75-1.15-.72-1.71-12.23-2-26.17v-.43c-.07-2.87-.12-5.83-.13-8.83,0-.41,0-.82,0-1.23-.19-20.11,1.25-41,1.25-41l51.63.32L118.12,436l-.06,1.61-.28,8.4,0,.87s30.11,13.79,33.17,16.27S156.32,473.56,153.55,474.45Z" style="fill:#ad6359"></path><path d="M153.55,474.45c-2.76.9-81.74.19-84.73-1.75-1.15-.72-1.71-12.23-2-26.17v-.43c-.07-2.87-.12-5.83-.13-8.83,0-.41,0-.82,0-1.23l51.45-.06-.06,1.61-.28,8.4,0,.87s30.11,13.79,33.17,16.27S156.32,473.56,153.55,474.45Z" style="fill:#ebebeb"></path><path d="M153.55,474.45c-2.76.9-81.74.19-84.73-1.75-1.15-.72-1.71-12.23-2-26.17v-.43l51-.11,0,.87s30.11,13.79,33.17,16.27S156.32,473.56,153.55,474.45Z" style="fill:#FFC727"></path><path d="M152.69,471.38c-13.31-.45-67-1-80.23-.43-.11,0-.11.08,0,.08,13.18.73,66.91.85,80.23.57C153,471.59,153,471.39,152.69,471.38Z" style="fill:#263238"></path><path d="M123.45,446.19c-5.23-1-11.65-.28-15.69,3.41-.15.15,0,.37.22.32a73.09,73.09,0,0,1,15.44-3.07A.33.33,0,0,0,123.45,446.19Z" style="fill:#263238"></path><path d="M127.21,448.5c-5.23-1-11.65-.28-15.69,3.42-.15.14,0,.36.22.31a74.37,74.37,0,0,1,15.44-3.07A.33.33,0,0,0,127.21,448.5Z" style="fill:#263238"></path><path d="M131,450.82c-5.23-1-11.65-.28-15.69,3.41-.15.15,0,.36.22.31a73.7,73.7,0,0,1,15.44-3.06A.33.33,0,0,0,131,450.82Z" style="fill:#263238"></path><path d="M144.93,172.63a185.85,185.85,0,0,1-6.38,35.17c-.42,1.51-.88,3-1.38,4.43,0,0-4.26,2-12.66,7.14,0,0-.55,18.56-1.1,39.25-.61,23.14-1.25,48.94-1.11,54.41.49,20.48-2.53,133.08-2.53,133.08l-56.87.24S73.15,320.61,73.08,313.11C73,301.05,75.82,247.76,78,208.89c1.35-23.94,2.46-36.25,2.46-36.25Z" style="fill:#263238"></path><path d="M117.82,436c-8.69-.14-6.2-.22-14.88-.26-4.26,0-32.19-.14-36.16.53a.09.09,0,0,0,0,.18c4,.64,31.91.27,36.16.21,8.69-.12,6.19-.18,14.88-.4A.13.13,0,0,0,117.82,436Z" style="fill:#37474f"></path><path d="M85.26,180.88c-1,31.73-2.14,57.3-3.56,89s-3.32,63.63-6,95.37C74.24,383,72.84,408,70.93,425.65c0,.11.17.16.19,0,4.13-31.48,6.43-70.39,8.46-102.06s3.4-63.39,4.47-95.1c.61-17.94,1.07-29.73,1.6-47.67C85.66,180.61,85.27,180.63,85.26,180.88Z" style="fill:#37474f"></path><path d="M87.44,201.5c1.4-.36,2.9-.48,4.33-.7,1.15-.18,2.3-.39,3.44-.64a14.8,14.8,0,0,0,6.07-2.56c2.84-2.22,6.09-13.44,6.49-14.16.68-1.23.89-.15.89,0,0,1.3-3,11.13-4.14,13-2.11,3.36-5.88,4.71-9.65,5.19-1.09.13-2.18.21-3.26.27a22.69,22.69,0,0,1-4.12,0C87.28,201.85,87.22,201.55,87.44,201.5Z" style="fill:#37474f"></path><path d="M137,212.5A100.85,100.85,0,0,0,121,220c-.2.12-.07.43.15.33,5.4-2.31,10.9-4.53,16.16-7.14A.35.35,0,0,0,137,212.5Z" style="fill:#37474f"></path><path d="M138.61,175.54c0-.19-.34-.23-.34,0a178.09,178.09,0,0,1-.9,18c-.25,2.78-2.49,18.14-7.31,17-.8-.19-1.22-1-1.34-2.2a19.49,19.49,0,0,1,.64-4.71c.53-3.21,1-6.44,1.24-9.69a88.28,88.28,0,0,0-.2-18.17.16.16,0,0,0-.31,0,165.57,165.57,0,0,1-1.47,25.08c-.6,4-2.61,10,1.57,10.63s7-9.45,7.52-12.21A91.86,91.86,0,0,0,138.61,175.54Z" style="fill:#37474f"></path><path d="M130.19,211a27.19,27.19,0,0,0-1.08,3.19,7.1,7.1,0,0,0-.45,2.61.18.18,0,0,0,.33.07,9.06,9.06,0,0,0,1.12-2.54c.37-1,.75-2,1.09-3A.54.54,0,0,0,130.19,211Z" style="fill:#37474f"></path><path d="M137.27,111.58c7.54,25.81,18.1,51.12,23,54.61,7.65,5.4,43.84,10.4,55.93,9.19,4-.4,5.72-29,2.14-31.32s-44.53-3.19-46.94-4.19c-1.28-.54-14-19.35-23.56-31.8C139,96.51,135,103.75,137.27,111.58Z" style="fill:#ad6359"></path><path d="M211.3,175.52c3.43.47,19.32,1.23,23.79.45S252.27,172,252,168.54s-4-2.85-4-2.85,5.15-2.19,4.58-5.68-6.43-2.31-6.43-2.31,5.12-2.63,4.31-6.07-6.52-1.26-6.52-1.26,4.8-2.19,2.93-4.74c-2.24-3.06-10.63,2-15.63,2.46-1.14.11-23.18.61-23.18.61Z" style="fill:#ad6359"></path><path d="M244.41,150.19c-6.18,3.69-9.53,4.24-16.61,4.06a.11.11,0,0,0,0,.22c6.92.8,11.21.72,16.83-4C244.88,150.25,244.7,150,244.41,150.19Z" style="fill:#263238"></path><path d="M246.61,157.4c-6.75,3.27-10.38,3.9-17.81,4.25-.1,0-.11.19,0,.19,7.32.26,11.6.08,17.92-4.07C247,157.58,246.92,157.25,246.61,157.4Z" style="fill:#263238"></path><path d="M247.6,165.69c-6.77,2.7-10.71,3.55-18,3a.14.14,0,0,0,0,.27c7.35,1.31,12.28.28,18.07-3C248.06,165.68,248,165.52,247.6,165.69Z" style="fill:#263238"></path><path d="M203.5,145.22s7.47-5.05,11.24-6.54,19.89-1.89,20.17,1.59c.36,4.48-8.89,6.54-13.56,7,0,0,.86,10.37-5.47,13.29S203.5,145.22,203.5,145.22Z" style="fill:#ad6359"></path><path d="M234.61,141.53c-2.62,4.33-8.78,4.48-13.28,5.22a.42.42,0,0,0-.32.61c.07,4.37-1.11,10.56-4.86,13.26a.11.11,0,0,0,.11.18c4.41-2.35,6.07-8.33,5.69-13.12,4.62-.69,10.79-1.11,12.7-6.13C234.66,141.53,234.62,141.5,234.61,141.53Z" style="fill:#263238"></path><path d="M204.26,179l.39-38.1s-29.24-2.13-32.8-2.69c-1.51-.24-17.42-23.44-24.88-33.29-4.91-6.48-13.14-7.58-10.44,7.88,1.59,9.06,13.87,51.06,21.84,55.88C164.7,172.51,204.26,179,204.26,179Z" style="fill:#455a64"></path><path d="M195.83,174c-.41-2.44-.39-12.67-.36-15.22S196,146,196,143.42c0-.14.21-.18.21,0,0,2.59.32,12.86.32,15.4S196.4,171.55,196,174C195.94,174.11,195.84,174.11,195.83,174Z" style="fill:#263238"></path><path d="M192.55,176.94c-11.36-2-30.19-5.85-34.18-8.26-8-4.84-20.26-46.83-21.84-55.89-1.36-7.8.07-11.39,2.44-12.19Z" style="fill:#020100;opacity:0.1"></path><path d="M78.21,172.45c.12.2,69.21,8.63,70,8.06.28-.22,2-62-5.26-78.36C139.93,95.39,127.8,91.8,121,99,87.93,134,78.05,172.18,78.21,172.45Z" style="fill:#ebebeb"></path><path d="M112,103.07c-15.59,13.86-36.76,39.41-35.81,46,2.37,16.41,14.55,37.08,20.93,44.72,3.72,4.46,28.21-14,25.11-18.13-4.9-6.51-16.55-27-17.88-29.72-.7-1.43,10.11-21,16-34.4C126.75,96.93,119.61,96.31,112,103.07Z" style="fill:#ad6359"></path><path d="M130.48,188.51c-.88-1.79.05-2.27,3.25-.72s14.57,10.37,17.31,6.14-13.46-16.44-19-18.6-15.23-3.72-15.23-3.72C119.5,174.62,125.3,182.54,130.48,188.51Z" style="fill:#ad6359"></path><path d="M96.94,193.64c7.86,8.2,17.13,18.89,29.47,22.38a6.34,6.34,0,0,0,4.15-.14c5.5,1.66,7.93-.44,7.93-.44,5.6,0,7.79-2.51,7.79-2.51s6.48,1.88,8.27-1.85c2-4.17-7.48-6-12.09-10.18-10.55-9.61-22.87-26.22-25.64-29.29Z" style="fill:#ad6359"></path><path d="M124.32,198.6a91.77,91.77,0,0,0,9.72,7.89,91.79,91.79,0,0,0,12.19,6.29.11.11,0,0,1-.08.21,48.42,48.42,0,0,1-22-14.25C124.06,198.59,124.17,198.46,124.32,198.6Z" style="fill:#263238"></path><path d="M117.6,204.13c3.23,2.52,8.93,6.91,20.94,11.18,0,0,0,.09,0,.08a43.56,43.56,0,0,1-21-11.11C117.29,204.11,117.38,204,117.6,204.13Z" style="fill:#263238"></path><path d="M114,207.17c5.65,4.08,9.73,5.93,16.5,8.67,0,0,0,.09,0,.08-8-2.31-10.67-4.06-16.65-8.58C113.67,207.19,113.82,207,114,207.17Z" style="fill:#263238"></path><path d="M90.48,192.84l31.24-21.39L105.86,146c5.45-10.75,15.6-32,18.25-40,3.11-9.38-2.33-10.52-10.27-4.33-18.16,14.16-41.53,41.46-42.6,47.12C69.7,156.91,90.48,192.84,90.48,192.84Z" style="fill:#455a64"></path><path d="M90.85,185.1c1.68-1.67,9.67-7.35,11.67-8.75s10.24-6.71,12.31-8.13c.11-.08.25.06.14.14-2,1.44-9.85,7.41-11.84,8.82s-10,7-12.2,8C90.85,185.24,90.8,185.16,90.85,185.1Z" style="fill:#263238"></path><path d="M118.41,120.16c-3.18,7.7-7.45,15.65-11,23.22a24.21,24.21,0,0,0-1.08,2.58c3.51,6.23,7.91,12.94,11.64,19.13l3.8,6.28,0,0,0,0-.85.55.8-.63,0,.06-4.13-6.06c-3.93-6-8.3-12.43-11.88-18.58-.14-.31-.34-.49-.32-.92a17.37,17.37,0,0,1,1.16-2.9c3.51-7.36,8.1-15.6,11.87-22.8Z" style="fill:#263238"></path><path d="M118.64,121.67a9.71,9.71,0,0,1-2.59,3.07c.86-1,1.64-2.14,2.59-3.07Z" style="fill:#263238"></path><path d="M128.56,95.52c-3,2-1.82,6.37,1.61,11.3s7.81,8,11.38,6.92,3.84-6.51,3.54-9.54c-.24-2.39-2.11-6.9-6.6-8.32S130.29,94.35,128.56,95.52Z" style="fill:#455a64"></path><path d="M140.19,111.86c-4.12.25-10.64-7.62-12.46-13-.13-.37,1-3.82,2.18-8.07.7-2.59,1.42-5.48,1.89-8.17l16.15,7a43.42,43.42,0,0,0-3.43,10,6.18,6.18,0,0,0-.07,1.12,1.34,1.34,0,0,1,0,.19C144.42,103.17,144.16,111.62,140.19,111.86Z" style="fill:#ad6359"></path><path d="M144.45,100.83s0,.11,0,.18a10.44,10.44,0,0,1-1.75-.2c-9.72-1.91-9.94-14.26-9.8-17.69l4,1.75,11,4.8a43.3,43.3,0,0,0-3.42,10A5.42,5.42,0,0,0,144.45,100.83Z" style="fill:#263238"></path><path d="M130.82,64.64c-1.94,6,1,23.62,5.28,27.59,6.18,5.75,16.41,6.44,21.33-1,4.77-7.23.52-30.06-4.25-33.68C146.15,52.2,133.68,55.71,130.82,64.64Z" style="fill:#ad6359"></path><path d="M147.46,75.44s-.08.07-.07.12c.2,1.18.24,2.57-.78,3.12,0,0,0,.07,0,.06C147.91,78.37,147.85,76.53,147.46,75.44Z" style="fill:#263238"></path><path d="M146.22,74.35c-1.93.12-1.53,4,.26,3.86S147.84,74.24,146.22,74.35Z" style="fill:#263238"></path><path d="M154.21,74.52s.1,0,.11.1c.08,1.2.38,2.56,1.5,2.84,0,0,0,.07,0,.07C154.48,77.48,154.1,75.67,154.21,74.52Z" style="fill:#263238"></path><path d="M155.15,73.17c1.91-.34,2.45,3.49.69,3.81S153.56,73.46,155.15,73.17Z" style="fill:#263238"></path><path d="M144.79,73.88a14,14,0,0,0,1.56-.33,2.54,2.54,0,0,0,1.52-.64.81.81,0,0,0,0-1,2,2,0,0,0-2-.47A3,3,0,0,0,144,72.5.87.87,0,0,0,144.79,73.88Z" style="fill:#263238"></path><path d="M156.47,69.79a13.84,13.84,0,0,1-1.57-.24,2.64,2.64,0,0,1-1.56-.55.81.81,0,0,1-.05-1,2,2,0,0,1,2-.59,3,3,0,0,1,1.93,1A.87.87,0,0,1,156.47,69.79Z" style="fill:#263238"></path><path d="M147,86.23c.32.25.64.61,1.08.6a3.32,3.32,0,0,0,1.25-.43s.08,0,.06,0a1.62,1.62,0,0,1-1.45.81,1.28,1.28,0,0,1-1-1C146.85,86.23,146.94,86.19,147,86.23Z" style="fill:#263238"></path><path d="M147.87,82.53a4.14,4.14,0,0,0,2.9,1.53,5.57,5.57,0,0,0,1.47-.08l.28-.07.25-.06a.31.31,0,0,0,.22-.29h0a.42.42,0,0,0,0-.12h0v-.11c-.07-.92-.3-2.31-.3-2.31.35.14,2.14.73,2.07.25a61.67,61.67,0,0,0-2.84-12.14.11.11,0,0,0-.21,0c.47,3.82,1.6,7.54,2.13,11.37a7,7,0,0,0-2-.38c-.13,0,.49,2.67.49,3.09v0a5.68,5.68,0,0,1-4.35-.87C147.88,82.35,147.79,82.44,147.87,82.53Z" style="fill:#263238"></path><path d="M151.71,83.75a4.77,4.77,0,0,1-1.81,1.62,2.2,2.2,0,0,1-1.3.17c-1-.18-1-1-.93-1.8a5.3,5.3,0,0,1,.34-1.16A6.22,6.22,0,0,0,151.71,83.75Z" style="fill:#263238"></path><path d="M149.9,85.37a2.2,2.2,0,0,1-1.3.17c-1-.18-1-1-.93-1.8A2.24,2.24,0,0,1,149.9,85.37Z" style="fill:#ff98b9"></path><path d="M156.91,64.44c-.77-1.53-2.12-3.37-3.08-3.63s-.89,2.67-3,2.95c-2.88.38-4.87-3.26-9.43-2.16-2.75.66-5.37,2.59-3.78,12,1.22,7.3-5.92,9.29-5.92,9.29s-4.54-16.21-.28-21.89,14.18-8.67,21.58-4C155.66,58.78,156.91,64.44,156.91,64.44Z" style="fill:#263238"></path><path d="M136.09,80.37s-4-5.64-6.56-4.22S130,85.78,133,86.89a3.07,3.07,0,0,0,4.11-1.67Z" style="fill:#ad6359"></path><path d="M130.46,78.48c-.05,0-.06.07,0,.08,2.12.85,3.25,2.81,4,4.84a1.69,1.69,0,0,0-2.54-.45.07.07,0,0,0,.06.11,1.89,1.89,0,0,1,2.08.65,8.92,8.92,0,0,1,1,1.68c.1.18.44.08.37-.14l0,0C135.48,82.5,133.36,78.74,130.46,78.48Z" style="fill:#263238"></path><path d="M147.3,54.31a25.1,25.1,0,0,0-7.15-1.56c-2.74-.14-11.23,1.17-13.15,3s-1.85,10-1.82,11.14,1.1,8.26,3.81,9.78,2-10.59,5.81-14.9S147.3,54.31,147.3,54.31Z" style="fill:#FFC727"></path><path d="M147.31,54.31s-8.75,3.18-12.51,7.5S131.7,78.24,129,76.72c-1.19-.67-1.82-1.76-2.43-3.61.27-3.58,1.28-9.17,3.94-13.19C133,56.15,137.6,54,142.63,53A27.79,27.79,0,0,1,147.31,54.31Z" style="opacity:0.1"></path><path d="M130.23,83.84c0-3.24,2.62-12.11,5.68-17.32s13-8.86,14.37-8.88c3.45-.06,4.33,1.52,4.85,1.17s-3.21-4-4.22-4.49a11.19,11.19,0,0,0-4.83-.83c-1.49.15-10.62,1.76-13.66,5.93s-6.95,15.52-5.87,18.27c.26.66,1.19,1,1.55,2,.47,1.23.84,2.66,1.29,3.51C129.75,83.85,130.23,84.12,130.23,83.84Z" style="fill:#FFC727"></path><path d="M136.53,64.24a16.47,16.47,0,0,1-2.35-1.47,11.89,11.89,0,0,1-2.06-1.89c0-.05-.13,0-.09.06a9.38,9.38,0,0,0,1.91,2.16,7.82,7.82,0,0,0,2.53,1.31C136.57,64.44,136.62,64.29,136.53,64.24Z" style="fill:#263238"></path><path d="M130,80.62c-.11-.22-.28-.42-.4-.63a3.85,3.85,0,0,1-.36-.77,7.47,7.47,0,0,0-.49-1.54,5.43,5.43,0,0,0-.84-1,2.2,2.2,0,0,1-.73-1.26.06.06,0,0,0-.11,0c.07,1,.78,1.62,1.27,2.41a9.36,9.36,0,0,1,.57,1.64,2.56,2.56,0,0,0,.95,1.28C129.89,80.78,130,80.7,130,80.62Z" style="fill:#263238"></path><path d="M130.81,77.06a13.72,13.72,0,0,1-1-1,8.94,8.94,0,0,1-.78-1.15c-.24-.4-.44-.81-.67-1.2s-.59-.92-.83-1.4c0-.06-.12,0-.09.06.25.5.42,1,.65,1.55a12.2,12.2,0,0,0,.72,1.27,6.58,6.58,0,0,0,.85,1.1,3.5,3.5,0,0,0,1.1.85S130.83,77.08,130.81,77.06Z" style="fill:#263238"></path><path d="M131.74,73.82a9.26,9.26,0,0,1-1.9-1.85c-.52-.69-1-1.42-1.48-2.14,0,0-.12,0-.1,0a10.87,10.87,0,0,0,1.3,2.36,5.07,5.07,0,0,0,.9,1,5.76,5.76,0,0,0,1.22.72S131.8,73.86,131.74,73.82Z" style="fill:#263238"></path><path d="M132.79,70.7a3,3,0,0,1-.92-.79c-.31-.34-.6-.69-.89-1l-.84-1a3.1,3.1,0,0,1-.66-1.14c0-.06-.12,0-.11,0a3.18,3.18,0,0,0,.47,1.23,8.3,8.3,0,0,0,.82,1.21,10.89,10.89,0,0,0,1,1,2.07,2.07,0,0,0,1.09.64C132.82,70.86,132.87,70.74,132.79,70.7Z" style="fill:#263238"></path><path d="M133.42,66.81c-.32-.27-.64-.54-.94-.84s-.58-.6-.86-.91-.59-.65-.86-1a.05.05,0,0,0-.09.06,7.89,7.89,0,0,0,1.54,2.11,9.81,9.81,0,0,0,1,.86,3.33,3.33,0,0,0,1.1.65.07.07,0,0,0,.08-.11A6.07,6.07,0,0,0,133.42,66.81Z" style="fill:#263238"></path><path d="M138.87,62.22c-.35-.37-.69-.73-1.07-1.07a14.46,14.46,0,0,0-1.23-1,13.88,13.88,0,0,0-2.62-1.5c-.06,0-.12.05-.06.09,1.62,1.19,3.29,2.32,4.91,3.52C138.85,62.34,138.91,62.27,138.87,62.22Z" style="fill:#263238"></path><path d="M140.61,59.32a6.64,6.64,0,0,0-1.17-1A14.73,14.73,0,0,0,136.56,57a.06.06,0,0,0-.05.1c.88.49,1.76,1,2.61,1.51a13.33,13.33,0,0,1,1.22.86c.39.31.7.7,1.08,1,0,0,.08,0,.06-.05A3.65,3.65,0,0,0,140.61,59.32Z" style="fill:#263238"></path><path d="M143.2,57.85a7.07,7.07,0,0,0-1.09-1,8.15,8.15,0,0,0-2.46-1.2c-.06,0-.09.07,0,.1A15.74,15.74,0,0,1,142,57.23c.37.27.72.57,1.08.85s.67.66,1.05.91c0,0,.06,0,0-.05A7.51,7.51,0,0,0,143.2,57.85Z" style="fill:#263238"></path><path d="M145,56.1c-.36-.25-.73-.48-1.1-.71a3.92,3.92,0,0,0-1.17-.55.05.05,0,0,0,0,.1c.7.48,1.39,1,2.08,1.46a11.7,11.7,0,0,1,1.64,1.66s.07,0,0,0A4.1,4.1,0,0,0,145,56.1Z" style="fill:#263238"></path><path d="M147.39,55.4a6.39,6.39,0,0,0-2.25-1.18c-.06,0-.09.07,0,.1a8.18,8.18,0,0,1,2.07,1.32,11.52,11.52,0,0,1,1.69,1.8s.09,0,.07,0A5.39,5.39,0,0,0,147.39,55.4Z" style="fill:#263238"></path><path d="M150.67,56.6a3.82,3.82,0,0,0-.31-.47,5.56,5.56,0,0,0-.79-.82A11.29,11.29,0,0,0,147.64,54c-.06,0-.11.06,0,.09a9.83,9.83,0,0,1,1.82,1.32,8.36,8.36,0,0,1,.76.81l.32.43a2.63,2.63,0,0,0,.3.44s.09,0,.09-.05A1.46,1.46,0,0,0,150.67,56.6Z" style="fill:#263238"></path><path d="M152.62,56.62A8.07,8.07,0,0,0,152,56a8.17,8.17,0,0,0-.72-.6c-.26-.18-.53-.36-.78-.56-.06,0-.12,0-.06.09a5.43,5.43,0,0,1,.73.62l.66.63.65.63a8.22,8.22,0,0,0,.66.66,0,0,0,0,0,.06-.06A3.61,3.61,0,0,0,152.62,56.62Z" style="fill:#263238"></path></g></svg>
