<svg xmlns="http://www.w3.org/2000/svg" viewBox="0 0 500 500"><g id="freepik--Character_3--inject-10"><g><g><g><path d="M384.52,113.19c-.64,24.38-3.63,35.26-7.54,52.26-2.79,12.13-20.62,29.92-32.66,42.1-1.98,2-25.49-14.3-23.45-18.42,1.28-2.57,28.8-28.4,31.42-35.01,3.46-8.75,11.75-27.99,19.95-43.73,5-9.61,12.74-14.55,12.28,2.81Z" style="fill:#d3766a;"></path><g><path d="M332.04,216.45c1.57-.99,2.1-.17,.99,2.94-1.12,3.15-8.16,14.49-3.98,16.61,4.19,2.14,13.88-14.07,15.34-19.4,1.47-5.32,1.94-14.45,1.94-14.45-2.52,2.77-9.28,8.92-14.29,14.3Z" style="fill:#d3766a;"></path><path d="M324,185.94c-8.15,7.99-15.79,17.71-17.8,29.45-.39,2.3,.53,3.83,.53,3.83-.99,5.25,1.19,7.3,1.19,7.3,.57,5.17,3.09,6.96,3.09,6.96,0,0-.28,4.31,2.72,4.72,2.91,.4,5.75-6.28,9.17-10.96,7.85-10.71,20.86-22.22,23.43-25.09l-22.33-16.21Z" style="fill:#d3766a;"></path><path d="M322.11,211.75c-2.25,3.2-4.54,6.28-6.34,9.77-1.98,3.82-3.24,7.84-4.62,11.89-.04,.13-.22,.08-.2-.05,1.35-7.73,5.68-15.97,11.02-21.7,.13-.14,.26-.06,.14,.1Z" style="fill:#263238;"></path><path d="M316.33,206.07c-2.01,3.23-5.51,8.94-8.28,20.47,0,.04-.08,.03-.07,0,.8-7.73,3.59-14.38,8.2-20.56,.14-.19,.29-.12,.15,.1Z" style="fill:#263238;"></path><path d="M313.17,203.08c-3.21,5.63-4.53,9.58-6.4,16.12-.01,.04-.08,.03-.07-.01,1.35-7.65,2.7-10.27,6.29-16.24,.12-.2,.3-.08,.18,.14Z" style="fill:#263238;"></path></g></g><g><path d="M349.51,210.84l-25.93-29.96s24.69-21.72,26.05-24.66c1.36-2.94,15.39-32.84,20.55-43.89,5.82-12.48,15.57-19.53,14.83,.87-1.08,29.65-6.31,50.2-7.9,57.18-1.58,6.98-27.6,40.47-27.6,40.47Z" style="fill:#FFC727;"></path><path d="M351.86,201.71c-.75-1.13-1.79-2.12-2.67-3.15-.8-.93-1.59-1.88-2.4-2.8-1.77-2.01-3.53-4.04-5.31-6.04-1.78-2-3.54-4.01-5.34-5.99-1.79-1.97-3.51-4.01-5.41-5.89-.07-.07-.19,.03-.13,.12,1.49,2.21,3.22,4.26,4.9,6.33,1.65,2.04,3.37,4.03,5.11,6,1.77,2,3.6,3.96,5.44,5.9,.89,.93,1.81,1.84,2.73,2.74,.96,.96,1.9,2.06,2.98,2.87,.06,.04,.14-.02,.1-.09Z" style="fill:#263238;"></path><path d="M385.01,113.2c-1.08,29.65-6.31,50.2-7.9,57.17-1.59,6.98-27.61,40.47-27.61,40.47l-11.79-13.63,43.48-96.86c2.47,.29,4.14,3.96,3.82,12.85Z" style="opacity:.1;"></path></g></g><g><g><g><path d="M394.89,337.48s36.72,29.68,36.75,29.7c7.05,5.64,13.14,10.71,16.04,13.62,.02,.01,.04,.03,.05,.05,1.1,1.1,1.73,1.88,1.76,2.26,0,.03,.02,.05,.01,.08-.26,3.24-43.68,60.91-45.87,62.41-2.19,1.52-6.64-4.63-6.74-8.21-.09-3.6,6.65-33.11,6.65-33.11l-36.43-30.01,27.78-36.79Z" style="fill:#d3766a;"></path><path d="M424.1,361.08s7.51,6.07,7.54,6.09c7.05,5.64,13.14,10.71,16.04,13.62,.02,.01,.04,.03,.05,.05,1.03,1.16,1.66,1.97,1.76,2.26,0,.03,.02,.05,.01,.08-.26,3.24-43.68,60.91-45.87,62.41-2.19,1.52-6.64-4.63-6.74-8.21-.09-3.6,6.65-33.11,6.65-33.11l-7.74-6.08,28.3-37.12Z" style="fill:#fff;"></path><g><path d="M403.92,445.8c2.2-1.5,45.67-59.13,45.93-62.38,.12-1.23-7.91-8.06-17.85-16.02-.1-.08-.21-.16-.31-.25l-28.46,36.87,.64,.46s-6.77,29.5-6.68,33.1c.1,3.58,4.55,9.72,6.73,8.21Z" style="fill:#263238;"></path><g><path d="M402.18,443.46c7.09-9.89,36.62-49.13,44.38-58.38,.06-.08,.12-.04,.06,.05-6.81,9.96-36.66,48.96-44.28,58.45-.16,.2-.31,.09-.16-.12Z" style="fill:#fff;"></path><path d="M401.62,407.69c2.17-4.36,6.28-8.59,11.21-9.46,.19-.03,.24,.24,.1,.33-4.03,2.87-7.45,5.82-10.82,9.48-.24,.26-.65-.04-.49-.35Z" style="fill:#fff;"></path><path d="M401.21,411.71c2.17-4.36,6.28-8.59,11.21-9.46,.19-.03,.24,.24,.1,.33-4.03,2.87-7.45,5.82-10.82,9.48-.24,.26-.65-.04-.49-.35Z" style="fill:#fff;"></path><path d="M400.79,415.72c2.17-4.36,6.28-8.59,11.21-9.46,.19-.03,.24,.24,.1,.33-4.03,2.87-7.45,5.82-10.82,9.48-.24,.26-.65-.04-.49-.35Z" style="fill:#fff;"></path></g><path d="M401.19,445.12c-.38,1.33,3.25,3.72,4.09,3.19,.84-.53,47.96-63.58,48.53-64.83,.57-1.25-3.56-3.75-4.69-2.65-1.13,1.09-47.92,64.3-47.92,64.3Z" style="fill:#FFC727;"></path><path d="M401.19,445.12c-.38,1.33,3.25,3.72,4.09,3.19,.84-.53,47.96-63.58,48.53-64.83,.57-1.25-3.56-3.75-4.69-2.65-1.13,1.09-47.92,64.3-47.92,64.3Z" style="opacity:.4;"></path><path d="M430.97,381.54c1.06-5.75,10.01-4.11,8.94,1.65-1.06,5.75-10.01,4.11-8.94-1.65Z" style="fill:#fff;"></path></g></g><g><path d="M372.94,302.95c2.6,12.85,47.18,54.92,47.18,54.92l-28.42,36.66s-72.94-54.46-69.82-82.96c3.27-29.91,40.56-130.38,40.56-130.38h42.65s-34.72,109.12-32.16,121.76Z" style="fill:#455a64;"></path><path d="M369.72,294.97c.6-3.18,1.27-6.35,1.93-9.52,1.35-6.47,2.78-12.93,4.29-19.36,3-12.76,6.24-25.46,9.77-38.08,3.55-12.66,7.29-25.3,11.61-37.72,.53-1.53,1.08-3.06,1.63-4.59,.04-.12,.22-.06,.18,.06-3.74,12.44-7.59,24.84-11.1,37.35-3.49,12.46-6.72,24.98-9.77,37.56-1.53,6.32-2.95,12.66-4.34,19-.68,3.12-1.35,6.24-2,9.37-.66,3.17-1.55,6.41-1.74,9.65-.19,3.19,.83,6.01,2.44,8.7,1.56,2.6,3.39,5.04,5.17,7.48,3.55,4.9,37.42,43.28,38.51,44.32,.09,.08-.05,.21-.13,.13-4.54-4.15-33.28-35.78-36.92-40.67-1.81-2.42-3.56-4.88-5.29-7.36-1.62-2.32-3.24-4.69-4.13-7.41-.96-2.92-.67-5.94-.11-8.91Z" style="fill:#263238;"></path><path d="M369.82,181.19l6.63,99.22c7.39-34.78,28.64-99.22,28.64-99.22h-35.27Z" style="fill:#263238;"></path></g></g><g><g><path d="M387.64,390.75s-8.74,44.51-8.74,44.55c-.12,9.03-.39,16.94-.91,21.02,0,.02,0,.04,0,.07-.2,1.54-.42,2.52-.7,2.78-.02,.02-.03,.04-.05,.06-2.71,1.78-74.9,2.9-77.43,2.1-2.54-.8-.43-8.08,2.34-10.36,2.79-2.28,30.22-15.07,30.22-15.07l9.65-44.81,45.63-.33Z" style="fill:#d3766a;"></path><path d="M299.79,461.31c2.53,.81,74.72-.31,77.43-2.09,.02-.01,.04-.04,.06-.06,.27-.26,.51-1.24,.7-2.78,.01-.02,.01-.05,.01-.07,.52-4.07,.78-11.99,.91-21.01,0-.01,1.59-7.8,1.59-7.8h-46.33l-1.8,8.39s-27.44,12.79-30.23,15.08c-2.76,2.28-4.88,9.56-2.34,10.36Z" style="fill:#fff;"></path><g><path d="M299.8,461.32c2.53,.81,74.71-.31,77.43-2.1,1.05-.66,1.49-11.19,1.67-23.92,0-.13,0-.27,0-.4l-46.57,.2,.03,.79s-27.44,12.79-30.22,15.07c-2.76,2.27-4.88,9.56-2.34,10.36Z" style="fill:#263238;"></path><g><path d="M300.57,458.51c12.16-.49,61.26-1.31,73.32-.86,.1,0,.1,.07,0,.08-12.04,.75-61.15,1.17-73.32,.99-.26,0-.26-.19,0-.2Z" style="fill:#fff;"></path><path d="M328.45,436.09c4.77-.97,10.64-.32,14.35,3.03,.14,.13-.04,.33-.2,.29-4.75-1.42-9.17-2.3-14.13-2.71-.35-.03-.37-.54-.03-.6Z" style="fill:#fff;"></path><path d="M325.03,438.23c4.77-.97,10.64-.32,14.35,3.03,.14,.13-.04,.33-.2,.29-4.75-1.42-9.17-2.3-14.13-2.71-.35-.03-.37-.53-.03-.6Z" style="fill:#fff;"></path><path d="M321.6,440.36c4.77-.97,10.64-.32,14.35,3.03,.14,.13-.04,.33-.2,.29-4.75-1.42-9.17-2.3-14.13-2.71-.35-.03-.37-.54-.03-.6Z" style="fill:#fff;"></path></g><path d="M298.65,458.75c-1.28,.52-.94,4.85,0,5.19,.94,.33,79.63-1.24,80.96-1.56,1.33-.32,.77-5.11-.79-5.33-1.56-.22-80.17,1.7-80.17,1.7Z" style="fill:#FFC727;"></path><path d="M298.65,458.75c-1.28,.52-.94,4.85,0,5.19,.94,.33,79.63-1.24,80.96-1.56,1.33-.32,.77-5.11-.79-5.33-1.56-.22-80.17,1.7-80.17,1.7Z" style="opacity:.4;"></path><path d="M367.11,443.16c5.19-2.7,9.39,5.37,4.19,8.07-5.19,2.7-9.39-5.37-4.19-8.07Z" style="fill:#fff;"></path></g></g><g><path d="M366.56,181.19c.05,.9,2.43,9.06,3.66,21.28,.89,8.93,2,16.82,3.19,17.81,1.35,1.11,8.09,5.44,10.36,6.82,0,0-21.02,63.71-26.44,84.94-7.86,30.79-21.8,109.14-21.8,109.14l46,1.33s14.55-75.26,21.22-104.57c5.72-25.13,24.71-100.51,24.71-100.51,7.97-19.6-1.77-36.25-1.77-36.25,0,0-59.12-.03-59.12,0Z" style="fill:#455a64;"></path><g><g><path d="M369.86,217.76c4.89,2.58,9.48,5.88,13.84,9.26,.17,.13,0,.4-.19,.29-4.69-2.94-9.5-5.8-14.02-8.99-.36-.25-.01-.76,.36-.56Z" style="fill:#263238;"></path><path d="M373.69,183.1c.04-.17,.35-.16,.32,.02-.97,5.96-1.4,11.27-1.76,16.92-.17,2.63-.31,17.26,4.34,16.91,.78-.06,1.28-.74,1.57-1.85,.35-1.34,.1-3.09,.08-4.48-.03-3.07,.03-6.14,.25-9.2,.4-5.72,1.25-11.37,2.81-16.9,.05-.18,.32-.13,.29,.06-1.22,7.82-2.23,15.65-2.26,23.58-.02,3.81,.99,9.7-2.99,9.67-4.06-.03-5.16-9.81-5.25-12.46-.24-7.37,.91-15.12,2.6-22.28Z" style="fill:#263238;"></path><path d="M376.41,217.33c.26,1.02,.43,2.07,.55,3.12,.09,.81,.26,1.7,.04,2.5-.04,.15-.25,.14-.32,.02-.42-.75-.5-1.7-.67-2.53-.2-.97-.42-1.94-.59-2.91-.11-.65,.84-.83,1-.2Z" style="fill:#263238;"></path></g><path d="M390.37,374.31c1.57-8.86,3.39-17.69,5.31-26.48,1.08-4.97,2.34-9.88,3.67-14.79,.09-.34,.58-.18,.52,.16-.81,4.49-1.58,8.99-2.5,13.46-.92,4.46-1.83,8.92-2.72,13.38-1.75,8.83-8.7,40.03-8.9,41.27-.02,.12-.2,.06-.18-.05,.19-1.19,4.01-22.51,4.8-26.95Z" style="fill:#263238;"></path><path d="M352.05,331.13c1.67-8.33,3.92-16.54,6.19-24.72,4.56-16.46,9.93-32.69,15.28-48.91,1.54-4.67,3.08-9.35,4.63-14.02,.77-2.33,4.55-14.93,5.02-16.13,.05-.12,.23-.07,.2,.06-1.08,4.29-2.57,10.55-3.82,14.8-1.24,4.2-2.59,8.37-3.89,12.55-2.56,8.21-5.17,16.42-7.66,24.65-4.92,16.28-9.8,32.55-13.8,49.09-1.12,4.63-2.23,9.26-3.25,13.91-1.02,4.65-1.89,9.32-2.87,13.98-.03,.13-.24,.09-.23-.04,.84-8.48,2.52-16.87,4.2-25.22Z" style="fill:#263238;"></path><path d="M383.24,374.68c2.76-15.88,6.07-31.68,9.74-47.38,3.68-15.77,29.43-107.75,31.11-115.26,1.65-7.42,2.49-15.44,.77-22.93-.44-1.9-.99-3.76-1.72-5.57-.05-.13,.13-.23,.19-.1,6.75,15.1,1.2,29.17-2.48,43.3-3.67,14.1-21.03,77.56-24.88,93.38-3.85,15.81-7.28,31.72-10.3,47.72-3.03,16.05-5.57,32.16-8.16,48.28-.34,2.1-.6,4.21-.88,6.31-.02,.12-.2,.11-.19,0,1.93-15.98,4.03-31.89,6.79-47.75Z" style="fill:#263238;"></path></g></g></g></g><g><g><path d="M431.14,203.65c-.17,.19-76.55-1.9-77.2-2.65-.19-.22-2.38-9.74-1.21-15.51,4.35-21.58,18.95-73.36,24.86-81.06,6.94-9.03,17.78-4.86,20.26-3.2,11.55,7.74,36.01,78.15,37.47,84.81,1.27,5.77-3.89,17.29-4.18,17.61Z" style="fill:#FFC727;"></path><path d="M405.24,195.45l-5.27-12.21,.21,.11c-2.04,.31-4.12-.17-5.89-1.18-1.79-1.01-3.18-2.59-4.21-4.32l-.4-.64c-.12-.22-.22-.45-.33-.68l-.65-1.37c-.33-.95-.69-1.89-.96-2.86-.22-.98-.5-1.95-.67-2.94l-.45-2.97,.38,.35-18.95-.71,.47-.42c-.13,1.59-.4,3.12-.75,4.65-.35,1.53-.81,3.04-1.44,4.49-.63,1.44-1.37,2.88-2.43,4.1-1.05,1.22-2.37,2.25-3.91,2.84l.29-.33-2.94,12.22-.4-.53c7.99,.33,15.98,.74,24.02,1.15l24.3,1.25Zm0,0l-24.03-.72c-8.07-.24-16.19-.49-24.31-.82l-.52-.02,.12-.51,2.88-12.24,.06-.24,.24-.09c1.36-.54,2.54-1.46,3.5-2.59,.97-1.12,1.68-2.48,2.29-3.85,.61-1.39,1.06-2.85,1.41-4.33,.35-1.48,.62-3,.75-4.5l.04-.44,.43,.02,18.94,.83h.33l.05,.35,.4,2.93c.15,.97,.41,1.92,.61,2.88,.24,.95,.59,1.87,.89,2.8l.61,1.34c.1,.22,.2,.45,.31,.67l.38,.62c.97,1.68,2.28,3.21,3.96,4.19,1.66,.97,3.65,1.49,5.56,1.25l.16-.02,.05,.13,4.92,12.36Z" style="opacity:.1;"></path></g><g><g><path d="M408.71,108.4c21.43,17.68,47.24,48.99,39.42,57.63-7.15,7.89-35.67,5.9-55.4,1.32-3.75-.87-3.82-29.65,.3-29.55,7.57,.19,21.77,2.79,22.27,2.86,1.06,.13-7.87-14.18-16.21-28.09-9.31-15.52-2.62-14.27,9.63-4.17Z" style="fill:#d3766a;"></path><g><path d="M398.5,138.2s-11.6-.82-19.15-.94c-4.22-.07-11.45,.45-14.57,1.82-4.67,2.04-22.88,13.56-20.19,18.03,2.44,4.05,16.84-7.83,16.84-7.83,0,0-15.58,10.71-11.75,15.04,3.84,4.34,18.31-11.25,18.31-11.25,0,0-15.77,11.36-11.1,15.21,3.53,2.91,17.43-10.47,17.43-10.47,0,0-13.48,9.86-9.99,13,3.86,3.48,17.48-8.07,17.48-8.07,10.23,6.5,17.77,5.41,23.03,4,1.28-.34-6.35-28.55-6.35-28.55Z" style="fill:#d3766a;"></path><g><path d="M366.58,145.23c-1.88,1.19-3.78,2.38-5.55,3.74-1.76,1.35-3.48,2.77-5.11,4.28-4,3.71-5.92,6.66-5.78,6.49,3.28-4,9.52-8.94,11.28-10.3,1.76-1.35,3.45-2.79,5.21-4.14,.04-.03,0-.09-.05-.07Z" style="fill:#263238;"></path><path d="M371.59,151.51c-2.33,1.62-4.7,3.15-6.96,4.88-2.25,1.72-5.32,4.24-7.44,6.11-.16,.14-.02,.44,.15,.3,2.2-1.78,5.44-4.21,7.66-5.96,2.21-1.75,4.37-3.6,6.64-5.27,.04-.03,0-.08-.04-.05Z" style="fill:#263238;"></path><path d="M376.85,156.13c-3.69,2.3-6.95,5.28-10.07,8.28-.16,.15,.02,.18,.19,.04,3.3-2.81,5.86-5.05,9.97-8.19,.06-.05,0-.18-.08-.13Z" style="fill:#263238;"></path></g></g></g><g><path d="M398.32,100.75c14.52,6.08,56.12,48.77,51.94,62.98-4.18,14.21-49.16,6.37-49.16,6.37l-2.17-33.85s12.51,1.91,12.8,1.28c.29-.63-8.84-15.99-12.55-22.24-3.72-6.25-8.58-17.77-.86-14.53Z" style="fill:#FFC727;"></path><g><path d="M406.19,167.22c.04-4.87-.5-24.78-.91-29.08-.03-.3-.22-.35-.23-.04-.48,14.58,.75,24.34,.96,29.11,0,.12,.19,.13,.19,0Z" style="fill:#263238;"></path><path d="M398.62,135.85c1.32-.04,2.69,.2,4,.37,1.19,.15,2.37,.3,3.55,.47,2.57,.36,5.13,.78,7.69,1.22,2.56,.44,5.11,.91,7.65,1.41,2.54,.5,5.05,1.15,7.59,1.66,.12,.02,.07,.2-.05,.18-2.56-.46-5.16-.75-7.73-1.15-2.52-.39-5.04-.78-7.57-1.17-2.52-.39-5.04-.76-7.56-1.16-1.23-.19-2.46-.4-3.7-.6-1.2-.19-2.38-.43-3.57-.69-.03,0,.22,1.89,.12,1.86-.27-.08-.73-2.4-.43-2.41Z" style="fill:#263238;"></path><path d="M401.64,122.7c.83,.77,1.64,1.55,2.43,2.36,.15,.15,.28,.31,.42,.46-.25-.44-.5-.89-.75-1.33-.87-1.54-1.87-3.08-2.56-4.71-.03-.08,.08-.13,.13-.07,1.15,1.45,2.06,3.13,3.04,4.69,.96,1.54,1.94,3.08,2.87,4.64,.93,1.56,1.89,3.12,2.79,4.69,.88,1.54,1.85,3.1,2.5,4.76,.04,.1-.1,.16-.16,.08-1.2-1.42-2.14-3.07-3.1-4.65-.95-1.55-1.86-3.13-2.79-4.7-.39-.66-.77-1.32-1.14-1.98-.14-.14-.28-.29-.42-.42-.39-.39-.76-.79-1.13-1.2-.75-.85-1.46-1.72-2.17-2.6-.02-.03,.02-.07,.05-.04Z" style="fill:#263238;"></path><path d="M400.9,169.32c-.01-.24,.1-.31,.18-.06,.04,.14,.1,.39,.15,.53,1.52,.16,7.09,.95,8.44,1.13,2.85,.38,5.71,.66,8.58,.84,2.88,.18,5.75,.28,8.64,.26,4.01-.03,12.96-1.28,16.41-2.13,.11-.03,.13,.14,.02,.18-1.88,.74-8.81,2.37-16.49,2.68-2.86,.12-5.74,.09-8.6-.05-2.91-.15-5.83-.43-8.72-.84-1.45-.2-2.89-.45-4.32-.71-1.35-.25-2.8-.42-4.08-.95-.1-.04-.17-.14-.18-.25-.01-.21-.02-.42-.04-.62Z" style="fill:#263238;"></path></g></g></g><g><path d="M385.09,113.03s11.03-10.1,17.95-9.63l6.54,4.77s1.07,1.34,1.71,.14c1.58-2.97,2.12-10.28-4.02-15.23-5.61-4.54-17.47-4.05-25.4-2.24-7.62,1.74-11.93,6.05-9.78,11.05s13,11.13,13,11.13Z" style="fill:#FFC727;"></path><path d="M384.41,110.69s-8.46-6.48-9.23-10.18c-.77-3.7,6.69-6.96,11.48-8.17,7.41-1.88,12.4-1.24,16.38,2.81,3.98,4.06-18.63,15.54-18.63,15.54Z" style="opacity:.1;"></path><g><path d="M384.41,110.69c3.48,.4,10.07-4.44,11.9-9.57,.12-.35-.91-3.69-1.98-7.79-.64-2.5-1.29-5.29-1.7-7.88-.08-.53-15.64,6.52-15.64,6.52,0,0,2.46,5.18,3.15,9.71,.05,.38,.07,.74,.06,1.08,0,.05,0,.11,0,.18,0,2.07,.48,7.33,4.21,7.75Z" style="fill:#d3766a;"></path><path d="M380.2,102.76c0,.05,0,.12,.01,.18,.52-.01,1.07-.07,1.68-.18,9.54-1.73,10.17-14.11,10.18-17.22-2.82,.87-15.06,6.43-15.06,6.43,0,0,2.46,5.19,3.15,9.71,.05,.38,.07,.73,.05,1.08Z" style="fill:#263238;"></path></g><g><path d="M394.57,66.51c1.71,5.86-1.56,22.69-5.75,26.4-6.08,5.38-15.94,5.79-20.49-1.5-4.41-7.06,.25-28.92,4.92-32.29,6.89-4.95,18.79-1.27,21.32,7.38Z" style="fill:#d3766a;"></path><g><g><path d="M377.71,76.66s.08,.07,.07,.12c-.25,1.13-.35,2.46,.61,3.03,.03,.02,.02,.07-.02,.06-1.22-.41-1.07-2.18-.65-3.21Z" style="fill:#263238;"></path><path d="M378.95,75.66c1.85,.21,1.3,3.89-.41,3.7-1.69-.19-1.14-3.88,.41-3.7Z" style="fill:#263238;"></path></g><g><path d="M370.96,75.78s-.1,.04-.1,.09c-.13,1.15-.48,2.44-1.57,2.66-.03,0-.04,.06,0,.06,1.29,.01,1.73-1.71,1.67-2.82Z" style="fill:#263238;"></path><path d="M370.12,74.43c-1.82-.41-2.51,3.25-.83,3.63,1.66,.38,2.35-3.29,.83-3.63Z" style="fill:#263238;"></path></g><path d="M380.66,74.19c-.48-.2-.9-.47-1.35-.72-.52-.28-.96-.45-1.24-.99-.15-.29,0-.75,.27-.92,.63-.41,1.34-.22,1.98,.09,.69,.34,1.13,.78,1.45,1.47,.31,.68-.47,1.34-1.1,1.07Z" style="fill:#263238;"></path><path d="M369.14,71.14c.52,0,1.01-.1,1.52-.16,.58-.07,1.05-.06,1.52-.46,.25-.21,.28-.7,.1-.96-.43-.61-1.16-.7-1.87-.65-.77,.06-1.34,.3-1.9,.83-.54,.51-.06,1.41,.63,1.4Z" style="fill:#263238;"></path><path d="M377.14,87.44c-.31,.23-.64,.55-1.06,.53-.4-.03-.84-.27-1.18-.47-.03-.02-.08,.01-.06,.05,.23,.48,.81,.85,1.36,.84,.53-.01,.85-.42,1.05-.88,.03-.06-.06-.1-.1-.07Z" style="fill:#263238;"></path><path d="M376.45,83.84c-.79,.9-1.81,1.3-2.85,1.34-.47,.02-.95-.03-1.41-.14-.09-.02-.18-.04-.26-.07-.08-.02-.16-.04-.24-.08-.13-.04-.19-.16-.19-.29h0c0-.05,.01-.08,.03-.12h0l.02-.11c.11-.88,.39-2.21,.39-2.21-.35,.11-2.09,.61-2,.15,.8-3.77,1.68-7.96,3.27-11.54,.05-.12,.23-.06,.2,.06-.62,3.65-1.88,7.17-2.56,10.83,.55-.12,1.46-.36,1.92-.28,.12,.05-.6,2.55-.61,2.95,0,0,0,.02,0,.04,1.45,.41,2.63,.13,4.21-.65,.09-.05,.17,.04,.09,.12Z" style="fill:#263238;"></path><g><path d="M372.77,84.67s.62,1.17,1.63,1.71c.37,.2,.79,.32,1.25,.27,.95-.1,1.1-.94,1.04-1.68-.05-.61-.24-1.16-.24-1.16,0,0-1.52,1.05-3.67,.86Z" style="fill:#263238;"></path><path d="M374.41,86.37c.37,.2,.79,.32,1.25,.27,.95-.1,1.1-.94,1.04-1.68-.99-.05-2.06,.47-2.28,1.41Z" style="fill:#ff98b9;"></path></g></g><g><path d="M388.25,76.36c-.87-3.44,1.49-8.9-.07-10.53-3.37-3.54-11.27,2.12-16.36,1.75-4.94-.36-6.34-3.66-5.13-7.59,1.21-3.93,4.82-6.36,10.42-6.75,5.8-.4,10.83,2.31,13.53,4.36,0,0-1.09-2.1-.57-2.68,.51-.58,2.78,1.53,3.45,2.4,.68,.89,1.02,2.47,1.02,2.47,0,0,.92-.2,2.27-.06,1.25,.13,2.76,1.24,2.82,1.54,.07,.3-1.75,.39-3.01,.35,0,0,2.1,3.3,1.84,5.97-.26,2.66-5.41,15.01-6.42,15.07-1.3,.07-3.44-4.9-3.8-6.3Z" style="fill:#263238;"></path><path d="M396.16,61.27s-.11,.03-.07,.07c1.12,1.13,2,2.41,2.37,3.98,.44,1.82,.16,3.73-.38,5.5-1.06,3.44-3.02,6.49-4.76,9.6-.05,.09,.1,.18,.16,.09,2.06-3.18,4.17-6.65,5.14-10.34,.83-3.15,.38-6.88-2.46-8.9Z" style="fill:#263238;"></path><path d="M388.48,64.55c-1.43-.32-3.05-.31-4.5-.06-1.42,.24-2.68,1.02-3.99,1.6-2.92,1.3-6.09,2.24-9.31,1.79-.04,0-.05,.06,0,.06,2.93,.6,5.9-.05,8.63-1.15,1.38-.56,2.7-1.4,4.14-1.79,1.63-.44,3.34-.28,5-.18,.17,.01,.2-.23,.03-.26Z" style="fill:#263238;"></path><path d="M387.71,55.95c-1.9-1.17-4.01-2.01-6.17-2.59-2.07-.56-4.22-.9-6.36-.72-3.7,.31-7.25,2.37-8.4,6.06-.58,1.87-.55,3.97,.3,5.76,.06,.12,.24,.04,.19-.08-1.24-3.4-.34-7.34,2.64-9.55,3.2-2.37,7.43-2.23,11.12-1.34,2.32,.56,4.52,1.46,6.67,2.49,.01,0,.03-.02,.01-.02Z" style="fill:#263238;"></path></g><g><path d="M389.53,80.4s3.98-5.33,6.41-3.89c2.43,1.44-.68,9.25-3.62,10.24-2.94,.99-3.91-1.71-3.91-1.71l1.12-4.63Z" style="fill:#d3766a;"></path><path d="M394.99,78.72s.05,.06,.01,.08c-2.06,.76-3.19,2.61-4.01,4.55,.63-.73,1.47-1.12,2.45-.37,.05,.04,0,.12-.06,.11-.83-.2-1.43-.08-2.02,.57-.41,.46-.71,1.05-1.01,1.59-.1,.18-.43,.07-.35-.14l.02-.05c.03-2.6,2.16-6.17,4.96-6.34Z" style="fill:#263238;"></path></g></g><path d="M384.41,110.69s9.05-14.22,19.8-15.29l-1.17,8.01s-6.38-.2-17.95,9.63l-.68-2.34Z" style="fill:#FFC727;"></path><g><path d="M405.92,103.65c-1.95-.31-3.91,.06-5.77,.58-1.87,.53-3.64,1.34-5.34,2.28-1.71,.91-3.32,2.01-4.9,3.15l-2.3,1.8-2.22,1.91-.25,.21-.26-.15c-1.98-1.1-3.85-2.32-5.65-3.67-.9-.68-1.78-1.37-2.59-2.15-.81-.77-1.6-1.58-2.25-2.5,1.53,1.63,3.35,2.92,5.18,4.16,.92,.62,1.87,1.19,2.83,1.75,.96,.55,1.92,1.11,2.9,1.61l-.51,.07,2.22-1.97c.77-.63,1.55-1.24,2.34-1.85,.82-.56,1.63-1.14,2.47-1.67,.86-.5,1.7-1.04,2.6-1.46,1.76-.92,3.66-1.61,5.6-2.05,.48-.12,.98-.19,1.47-.27,.5-.05,.99-.1,1.49-.11,.99-.03,2,.03,2.94,.33Z" style="fill:#263238;"></path><path d="M410.23,108.71c-1.29-.7-2.48-1.53-3.65-2.39-1.16-.88-2.29-1.78-3.33-2.82,1.29,.7,2.48,1.53,3.65,2.39,1.16,.88,2.29,1.78,3.33,2.82Z" style="fill:#263238;"></path></g><g><path d="M389.03,107.4s1.13,4.08,1.59,10.06c.19,2.36-.24,10.91-2.89,10.75-2.65-.16,1.32-5.88,1.82-10.4,.5-4.59-.89-7.73-1.2-10.41h.68Z" style="fill:#FFC727;"></path><g style="opacity:.1;"><path d="M389.03,107.4s1.13,4.08,1.59,10.06c.19,2.36-.24,10.91-2.89,10.75-2.65-.16,1.32-5.88,1.82-10.4,.5-4.59-.89-7.73-1.2-10.41h.68Z"></path></g></g><g><path d="M379.38,107.4s-1.02,3.7-1.44,9.12c-.17,2.14,.22,9.89,2.62,9.75s-1.2-5.33-1.65-9.44c-.46-4.16,.8-7.01,1.09-9.44h-.61Z" style="fill:#FFC727;"></path><g style="opacity:.1;"><path d="M379.38,107.4s-1.02,3.7-1.44,9.12c-.17,2.14,.22,9.89,2.62,9.75s-1.2-5.33-1.65-9.44c-.46-4.16,.8-7.01,1.09-9.44h-.61Z"></path></g></g></g></g></g></g></svg>
